<?xml version="1.0" encoding="UTF-8"?>
<svg width="40" height="42.769" version="1.1" viewBox="369 276 40 42.769" xmlns="http://www.w3.org/2000/svg">
 <path d="m388.66 276-0.58594 0.0918-0.55273 0.15429-0.58399 0.27735-0.46289 0.30664-0.40039 0.30859-0.55273 0.55274-0.33789 0.36914-0.40039 0.49218-0.3086 0.43165-0.33789 0.49218-0.43164 0.67774-0.42969 0.73828-0.33789 0.64648-0.30859 0.58399-0.24609 0.55273-0.0625 0.1582-0.0918 0.21094-0.01 0.0469-0.0664 0.1582c-0.50633-0.12643-0.89941-0.20653-1.6562-0.3125-1.0432-0.14609-4.365-0.34394-5.5312-0.10742-0.82101 0.0959-1.5874 0.34995-2.3379 0.67773l-0.46289 0.2461-0.42969 0.27734c-0.7686 0.54401-1.2528 1.2843-1.6934 2.0918l-0.1543 0.40039c-0.32397 1.0273-0.31487 2.1122-0.18359 3.168l0.0918 0.46289 0.12304 0.52148 0.21485 0.70899 0.49414 1.2305c0.74391 1.6011 1.7616 3.0292 2.8613 4.4004l0.1836 0.27735 0.0312 0.12305-0.12305 0.15234-0.0918 0.1543-0.15429 0.18554-0.27735 0.39844-0.24609 0.36914-0.27539 0.43164-0.24805 0.40039-0.27539 0.49219-0.0762 0.16797c0.80628 0.18083 1.5114 0.5625 2.1973 0.98633 0.27853-0.41653 0.53225-0.90155 1.3027-1.9844l0.94336 0.95313c1.2079 1.1054 2.4645 2.1682 3.7539 3.168 0.15308 1.7811 0.52876 3.4502 0.98242 5.1738-1.6392 0.43352-3.789 0.75521-5.2227 0.67188-0.82464-0.0834-1.2201-0.23631-1.6738-0.47461-0.64618-0.41926-0.90638-0.67618-1.2207-1.0625-0.4953 0.1713-1.2897 0.20488-1.5098 0.18555-0.68948-0.0561-1.346-0.31114-1.9941-0.55469-0.0901 0.39435 0.38474 1.3574 0.42969 1.4473 0.18244 0.34841 0.40309 0.69986 0.80078 1.1992 0.33624 0.41395 0.97625 0.8713 1.1387 0.98438 0.45088 0.32857 0.9678 0.55007 1.6309 0.76953 1.2644 0.39378 2.601 0.3738 3.9082 0.27734 1.5846-0.16323 3.1304-0.5613 4.6777-0.92382 0.21179 0.70566 0.46923 1.4966 0.95117 2.4629 1.3696 3.024 3.5585 5.1953 5.2637 5.3223h1.0762l0.36914-0.0605 0.64648-0.15429 0.55469-0.2461 0.49219-0.27734 0.49218-0.36914 0.33789-0.33789 0.21485-0.2461 0.33984-0.40039 0.30664-0.40039 0.49219-0.73828 0.30859-0.49218 0.40039-0.70899 0.55274-1.1074 0.27734-0.61524 0.2461-0.55273 0.40039-0.95508 0.0625-0.15234c4.0738 1.0572 5.9805 1.1261 7.291 0.98437 0.27084-0.0264 2.3192-0.31474 3.7227-1.7246 0.5053-0.48365 0.82078-1.0787 1.1387-1.6914 0.24078-0.49556 0.28868-1.0298 0.35352-1.5684 0.0692-1.288-0.22694-2.5376-0.62305-3.7539-0.19941-0.56518-0.46623-1.0982-0.73828-1.6309-0.31562-0.64295-0.73161-1.2362-1.1074-1.8476l-0.61524-0.92188-0.33984-0.49219-0.52149-0.76953-0.0312-0.21484 0.0625-0.0625 0.1836-0.27734 0.27734-0.30665 0.12305-0.18554 0.21484-0.2461 0.12305-0.21484 0.18555-0.21484 0.21484-0.3086 0.21484-0.33789 0.21485-0.30859 0.21679-0.33789 0.21485-0.3086 0.27734-0.49218 0.40039-0.79883 0.30664-0.70899 0.21485-0.58398 0.0937-0.24609 0.15429-0.51563c0-0.0138-4e-4 -0.03 0.0117-0.0488v-8e-3l0.0137-0.043 0.12305-0.46094 0.0606-0.36914 0.0254-0.0859c0-0.0458 0.01-0.0912 0.0156-0.13672 0.01-0.0398 0.0134-0.0798 0.0234-0.11914-3e-4 -4e-3 0-6e-3 0-0.01 0-0.0354-1e-3 -0.047 0.01-0.0566 3e-4 -7e-3 8e-4 -0.0138 0-0.0195 9e-4 -0.0101-1e-3 -0.0158 0.01-0.0547v-0.0508c-3e-4 -8e-3 5e-4 -0.0155-2e-3 -0.0234-9e-4 -0.0167-1e-3 -0.0318 0.01-0.043 0.017-0.20665 0.0359-0.41202 0.0469-0.61914 0-0.0991 0.01-0.17274 0.01-0.27148-3e-4 -0.14199-9e-3 -0.28391-0.01-0.42578 0-0.0933-0.0125-0.18611-0.0195-0.2793 0-0.0148 5e-4 -0.027 0-0.0371l-0.0156-0.22851-0.0625-0.3086-0.15429-0.58398-0.1543-0.46289-0.27539-0.49219-0.27734-0.42969-0.18555-0.24609-0.42969-0.49219-0.21289-0.18555c-0.32713 1.2653-1.0762 2.1204-2.0469 2.916l0.10546 0.19141 0.1836 0.40039 0.0742 0.21875c0.048 0.11393 0.0782 0.23422 0.10937 0.35351 0.045 0.2043 0.075 0.41373 0.082 0.62305 0 0.0534 8e-4 0.10706 0 0.16015-0.0302 0.79623-0.44587 2.1609-0.75579 2.8594l-0.15429 0.36914-0.1543 0.33789-0.24609 0.49219-0.30664 0.58594c-0.24847 0.45913-0.5694 0.8662-0.89058 1.2754-1.8579-2.0622-2.6074-2.6974-4.7539-4.5137-0.39808-2.5971-0.4322-2.629-1.0059-4.8555 0.59577-0.13075 1.0903-0.18781 1.8164-0.24815-0.30982-0.68492-0.47938-1.4328-0.49805-2.1523l0.0274-0.44141c-0.81198 2e-3 -1.559 0.1068-2.4824 0.25391l-0.0918-0.21094-0.33789-0.70899-0.27734-0.52148-0.42969-0.80078-0.52344-0.89258-0.33789-0.52344-0.24805-0.33789-0.39843-0.58398-0.4004-0.49219-0.21484-0.24609-0.36914-0.36914-0.46289-0.4004-0.36914-0.27734-0.40039-0.24609-0.55274-0.2461-0.5572-0.15395-0.58398-0.0918zm0.0625 2.6152h0.46094l0.24609 0.0312 0.46094 0.12305 0.49219 0.24609 0.40039 0.2754 0.33789 0.27734 0.21679 0.24609 0.27539 0.3086 0.33985 0.42968 0.36914 0.52344 0.33789 0.55469 0.43164 0.73828 0.36914 0.70703c0.094 0.18982 0.13888 0.30669 0.2207 0.5-0.8181 0.20268-1.6385 0.50388-2.4199 0.81445-1.2174 0.48423-1.6805 0.69617-2.3848 1.0586-0.46185-0.23271-1.494-0.71844-2.0059-0.91992-1.1195-0.41735-1.5827-0.54277-2.7324-0.86914l0.0918-0.21485 0.46094-0.89258 0.43164-0.73828 0.40039-0.64648 0.49219-0.70703 0.30664-0.40039 0.33984-0.36914 0.30664-0.27735 0.3086-0.24609 0.46093-0.27539 0.46094-0.18555zm9.0625 0.39258c-0.37217 7e-5 -0.67384 0.29562-0.67383 0.66016 0 0.36454 0.30166 0.66008 0.67383 0.66015 0.37217-7e-5 0.67383-0.29561 0.67383-0.66015 1e-5 -0.36454-0.30166-0.66009-0.67383-0.66016zm-17.582 0.16797c-0.36249 6.3e-4 -0.65607 0.29333-0.65625 0.6543 1.8e-4 0.36097 0.29376 0.65367 0.65625 0.6543 0.36325 4.5e-4 0.65802-0.29257 0.6582-0.6543-1.8e-4 -0.36173-0.29495-0.65475-0.6582-0.6543zm21.873 1.8398-0.21679 0.0293-0.36914 0.0937-0.39844 0.1836-0.40039 0.27734-0.24609 0.24609-0.2461 0.3086-0.15429 0.27539-0.1543 0.36914-0.0918 0.58594v0.42968l0.0312 0.27735 0.0918 0.40039 0.18359 0.40039 0.27735 0.39844 0.21484 0.21679 0.33984 0.27735 0.46094 0.24609 0.49219 0.15234 0.64648 0.0625 0.64649-0.0918 0.33789-0.12305 0.49218-0.27734 0.27735-0.2461 0.36914-0.40039 0.21484-0.43164 0.12305-0.33789 0.0918-0.49219v-0.43164l-0.12305-0.61523-0.18359-0.39844-0.2461-0.40039-0.36914-0.36914-0.12304-0.0996-0.0625-0.0547-0.0391-0.0234-0.084-0.0684-0.0469-0.0156-0.16797-0.10742-0.36914-0.1543-0.46289-0.0918zm-13.107 0.0918-0.37109 0.0606-0.39844 0.12305-0.33984 0.15429-0.2461 0.2168-0.18359 0.24609v0.1836l0.0312 0.0625 0.18359 0.21484 0.2461 0.1543 0.30859 0.0605h0.67578l0.2168-0.0312 0.49219-0.12304 0.49218-0.2461 0.21485-0.18359 0.1543-0.24609-0.0312-0.2461-0.0918-0.12304-0.27734-0.1543-0.42969-0.12305zm13.6 1.6309c0.3263 0.0119 0.52985 0.27003 0.61133 0.60933 0.0613 0.51977-0.22848 0.85886-0.67379 0.87889-0.68619-0.01-0.83716-0.65654-0.79883-0.87308 0.0944-0.52166 0.59334-0.65121 0.86129-0.61514zm-24.52 2.7598c1.0483 0.0217 2.0909 0.13011 3.1348 0.24804-0.72523 1.9411-0.8794 3.1848-1.0469 4.7461-1.7218 1.3864-3.3473 2.9538-4.7402 4.6699-0.75667-0.89209-1.2487-1.9614-1.752-3.0078l-0.15429-0.36914-0.21485-0.58594c-0.1611-0.47085-0.24577-0.9583-0.33984-1.4453-0.10578-0.93679 0.053-1.8728 0.43164-2.5234 0.45413-0.75075 1.0918-1.1339 1.877-1.4453 0.57095-0.1904 1.1568-0.24009 1.7539-0.27735 0.3508-0.0149 0.70135-0.0158 1.0508-0.01zm5.0723 0.55273c0.85014 0.18019 1.6027 0.39225 2.6406 0.80274-1.1614 0.67328-2.3 1.3833-3.3906 2.1699 0.11423-1.1812 0.36243-2.0977 0.75-2.9727zm11.662 0.041c0.30399 0.93201 0.56138 1.8722 0.76953 2.8301-1.313-0.83984-1.5277-0.97483-3.4453-2 0.37366-0.21251 0.81467-0.38451 1.2446-0.52228 0.55672-0.17837 1.1117-0.26735 1.4311-0.3078zm-5.8418 1.9531c1.4882 0.38612 4.0556 2.0521 6.0566 3.4004 0.97246 0.69769 1.9299 1.4232 2.7988 2.2461 0.942 0.73551 1.7253 1.5542 2.5703 2.3984 0.28892 0.29492 0.51138 0.57614 0.7793 0.83985-1.8258 2.3638-4.1511 4.3596-6.7285 6.0117-2.0186 1.1583-3.6634 2.0263-5.4277 2.5059-1.3689-0.47636-2.5901-1.271-3.8691-1.9395l-0.2461-0.15429-0.49218-0.27735-0.3086-0.18359-0.33789-0.2168-1.7539-1.168-0.27735-0.21679-0.30664-0.21485-0.27734-0.21484-0.2461-0.18555-0.30859-0.21484-0.30664-0.27735-0.40039-0.30664c-0.60618-0.58577-1.2578-1.1207-1.8789-1.6934l-0.55273-0.55273-0.2168-0.24609-0.25391-0.29297c0.68916-1.1825 3.1934-3.5007 3.8848-4.0469 0.52829-0.44183 2.0096-1.6376 2.5527-2.0156 2.9124-1.9039 3.4816-2.0878 5.5469-2.9844zm-12.314 0.2832c-0.40343 0-0.73047 0.32704-0.73047 0.73047s0.32704 0.73047 0.73047 0.73047 0.73047-0.32704 0.73047-0.73047-0.32704-0.73047-0.73047-0.73047zm24.223 0.22461c-0.4032-6.8e-4 -0.73043 0.31606-0.73047 0.70704 4e-5 0.39097 0.32728 0.70771 0.73047 0.70703 0.40243-3.7e-4 0.72848-0.31679 0.72852-0.70703-4e-5 -0.39024-0.32609-0.70667-0.72852-0.70704zm-9.2051 3.748c-0.64976 0.0277-1.3072 0.32515-1.791 0.64453l-0.9375 0.8125c-0.28016-0.26785-0.60293-0.73322-1.3945-1.1113-0.58116-0.31027-1.4696-0.41913-2.1543-0.24609-0.89745 0.23284-1.763 1.0765-2.0312 1.5078-0.3593 0.57451-0.51622 1.2175-0.49414 1.877 0.0301 0.71169 0.3311 1.5239 0.89453 2.4609 1.3613 2.2098 3.9196 3.9229 5.2441 4.707 1.3195-0.67417 3.6707-2.6675 4.9805-4.5254 0.74759-1.0602 1.1181-1.8578 1.2031-2.6211 0.0833-0.62112 2e-3 -1.3197-0.34766-1.998-0.76288-1.1568-1.963-1.5836-2.8945-1.502-0.0921-8e-3 -0.18449-0.01-0.27735-6e-3zm-6.332 1.2363c0.16996-1e-3 0.27708 0.0789 0.34961 0.17578 0.10469 0.13982 0.0863 0.37595-0.0664 0.46484-0.30257 0.16025-0.54762 0.34418-0.74414 0.76368-0.16275 0.41803-0.11831 0.67251-0.0391 1.0273 0.0613 0.19108-0.18264 0.37745-0.30664 0.36523-0.17914 0.0431-0.36235-0.0677-0.43164-0.17968-0.12634-0.2328-0.1477-0.42475-0.15234-0.61524-6e-3 -0.26232 0.0103-0.50634 0.12109-0.83203 0.10286-0.28137 0.25048-0.5127 0.41992-0.69531 0.2014-0.21705 0.43376-0.3651 0.65821-0.44336 0.0718-0.0209 0.13475-0.0308 0.1914-0.0312zm-15.584 2.166c-0.40343 0-0.73047 0.3148-0.73047 0.70313s0.32704 0.70313 0.73047 0.70313 0.73047-0.3148 0.73047-0.70313-0.32704-0.70313-0.73047-0.70313zm38.541 1.6094c-0.39906 5.6e-4 -0.72234 0.32035-0.72265 0.71484-7.9e-4 0.39525 0.32282 0.71624 0.72265 0.7168 0.4006 5.1e-4 0.7254-0.32079 0.72461-0.7168-3.1e-4 -0.39524-0.32479-0.71535-0.72461-0.71484zm-5.6504 1.8945c0.25057 0.34838 0.90869 1.3979 1.4863 2.7754 0.355 0.90994 0.72267 1.7119 0.95899 2.832 0.17154 1.5188-0.2194 2.3062-0.67969 2.8164-0.27141 0.35762-0.95676 0.97543-1.8965 1.1328-0.77708 0.13016-1.654 0.16659-2.416 0.0899-1.1545-0.0915-2.2321-0.30072-3.3398-0.62891 0.13433-0.4977 0.24161-0.91461 0.35742-1.4258l0.27734-1.3848 0.33789-2.0312c0.70998-0.50247 1.8866-1.3986 2.709-2.0918 0.78616-0.71008 1.4727-1.3908 2.2051-2.084zm-31.189 2.4238-0.30859 0.0606-0.46094 0.18554-0.40039 0.27735-0.3086 0.30664-0.27539 0.40039-0.21679 0.49219-0.0918 0.46093v0.64649l0.12305 0.52344 0.15429 0.30664 0.27735 0.43164 0.30664 0.30859 0.36914 0.27539 0.49219 0.2168 0.49218 0.0918h0.61524l0.46289-0.0918 0.40039-0.1543 0.42969-0.24609 0.43164-0.43164 0.24609-0.36914 0.21485-0.49219 0.0918-0.46094v-0.49219l-0.0625-0.36914-0.18359-0.49219-0.18555-0.30859-0.27734-0.33789-0.30664-0.27734-0.3086-0.21485-0.42968-0.18554-0.36914-0.0606zm0.67578 1.6602c0.1923 0.0355 0.41361 0.17487 0.52344 0.52343 0.0323 0.0686 0.11314 0.54965-0.24614 0.80078-0.0982 0.0896-0.45372 0.21599-0.67579 0.1543-0.18365-0.0397-0.33787-0.0815-0.48633-0.33398-0.0848-0.20115-0.0938-0.48398-0.0371-0.6211 0.17835-0.47133 0.62026-0.57036 0.92187-0.52343zm10.334 1.5859c1.0415 0.75615 2.2532 1.5337 3.4414 2-1.2302 0.58251-1.8043 0.79149-2.7617 1.0488-0.18575-0.52255-0.584-2.027-0.67968-3.0488zm13.023 0.0371c-0.0593 1.0586-0.41898 2.4762-0.59375 2.9004-0.57077-0.0826-1.0571-0.24179-1.3711-0.33203-0.72712-0.23591-1.0529-0.3686-1.5352-0.59961 0.506-0.26159 1.3159-0.67682 1.8125-0.95508 0.70214-0.37932 1.227-0.7046 1.6875-1.0137zm5.1562 0.71875c-0.40206 3.8e-4 -0.72794 0.32365-0.72851 0.72266-5.2e-4 0.39977 0.32569 0.72423 0.72851 0.72461 0.40283-3.7e-4 0.72904-0.32483 0.72852-0.72461-5.7e-4 -0.39901-0.32646-0.72229-0.72852-0.72266zm-11.617 2.6875c1.5201 0.94004 3.2185 1.5564 4.918 2.0801-0.95338 2.3659-2.0153 5.5701-4.75 5.8926-1.1361 0.13395-2.2268-0.79922-2.7891-1.4316l-0.30664-0.40039c-0.29857-0.40077-0.54707-0.83228-0.80078-1.2617-0.54414-0.89132-0.97984-1.8128-1.3223-2.7988 2.0009-0.63664 3.1483-1.0885 5.0508-2.0801zm0.27343 2.8477c-0.34638 0.025-0.63165 0.0948-0.79687 0.13672-0.29668 0.0888-0.65138 0.26095-0.80274 0.41797-0.18428 0.18608-0.21623 0.39358-0.15429 0.58398 0.072 0.18177 0.226 0.28563 0.58398 0.36914 0.46935 0.0799 1.4622-0.0315 2-0.30664 0.4596-0.25205 0.50095-0.44229 0.46094-0.67773-0.051-0.16676-0.19904-0.28107-0.36914-0.36914-0.28399-0.11729-0.45481-0.16938-0.92188-0.1543zm8.5488 3.7012c-0.3966-3.3e-4 -0.71838 0.32582-0.71875 0.72852-6.8e-4 0.40345 0.32141 0.73079 0.71875 0.73046 0.39658-7.6e-4 0.71748-0.32778 0.7168-0.73046-3.7e-4 -0.40192-0.32097-0.72776-0.7168-0.72852zm-17.537 0.01c-0.0754-7e-3 -0.14853-3e-3 -0.21289 0.0137-0.40941 0.0993-0.59376 0.422-0.58398 0.70703-5e-3 0.31836 0.20448 0.60513 0.49609 0.68945 0.27506 0.0716 0.6131-0.0177 0.82422-0.24609 0.19009-0.22916 0.19371-0.5437 0.0645-0.78125-0.11258-0.23417-0.36164-0.36129-0.58789-0.38281z" fill="#000000" stroke-width=".99205"/>
</svg>
