<?xml version="1.0" encoding="UTF-8"?>
<svg version="1.1" viewBox="0 0 2009 2048" width="569" height="580" xmlns="http://www.w3.org/2000/svg">
<path transform="translate(1008,276)" d="m0 0h17l19 3 18 5 18 8 13 8 12 9 15 13 12 12 7 8 13 16 13 19 8 11 11 17 17 29 14 26 9 17 11 23 4 9 10-2 5-2 10-2 1-1 27-2 3-2h22l3 3 1 37 3 14 4 13 3 7 1 9-5 4-30 2-8 2-14 2 1 8 5 15 5 23 2 4 5 25 2 4 2 14 2 7 1 13 2 4 2 22 2 4 1 13 6 9 13 10 10 9 8 6 15 14 11 8 22 22 3 2v2l4 2 42 42 7 8 11 11 4 2 10-11 7-11 5-8 6-10 10-19 8-16 5-11 5-12 4-9 5-14 2-9 5-15 3-13 2-25 2-8v-8l-2-8-2-19-3-9-6-13v-7l11-10 5-4 5-3 9-9 6-9 9-16 7-16 3-9 2-11 4-6 4 1 5 4 14 16 6 8 9 14 9 16 5 15 5 19 2 10 1 14 2 4v12l-1 16-1 2-2 25-2 7-2 12-4 15-6 20-3 8-7 19-10 23-13 26-9 16-7 10-7 11-7 10-7 11-7 10-6 7-4 7-7 8-4 6-9 10-6 9-2 2 1 7 17 25 11 16 20 30 16 26 8 11 12 23 9 17 9 21 6 15 6 16 5 21 5 19 3 29 4 18v6l-2 7-2 22-4 19-6 16-8 17-9 15-12 13-8 10-14 14-18 11-10 6-9 5-7 3-12 6-11 2-5 2-7 2-1 1-13 1-14 3-7 1-3 1h-11l-3 1h-30l-3-1h-16l-2-1-27-2-3-1-20-2-23-4-2 1-23-5-12-4-23-5-19-6-10-5-2 5-13 31-8 18-9 20-18 36-13 23-10 16-16 24-10 13-11 13-7 8-11 11-16 12-16 9-18 8-21 5-12 2h-35l-22-5-15-6-19-10-16-12-12-11-9-9-11-14-13-18-11-16-12-20-14-25-14-27-15-33-10-24-8-21-1-2-9 2-25 6-11 3-7 2-24 5-9 2-16 3-17 2-2 1-31 3-1 1-21 1h-44l-19-1-1-1-24-3-18-5-18-6-26-13-9-6-10-7-9-7-18-18-10-14-8-12-8-13-4-8-5-13-5-15v-11l7 1 20 10 8 2 1 1 20 2h6l3 2h13v-2l19-1 8-1 3-2h6l8 7 9 9 6 3 7 5 14 7 8 2 1 1 15 2 5 2 19 1 5 1 1 1h41l1-1 35-3 1-1 22-2 7-2 16-2 1-1 17-3 1-1 16-2 3-1v-16l-3-10-2-7-4-16-2-15-2-5-2-13-2-9-1-8-2-5-2-13-1-2-2-33-1-4v-4l-9-9-9-6-9-8-9-6-10-9-6-4-17-16-9-6-12-12-11-8-14-14-8-7-29-29-4 1-2 3h-2l-5 10-8 11-4 7-6 10-4 5-3 6-5 6-5 1-7-6-6-3-5-4-33-11-10-1-5-4 1-6 9-16 8-13 9-14 8-12 9-13 5-6 3-5 4-5-1-4-6-9-9-10-6-9-8-9-4-6-8-10-9-14-8-12-8-13-7-11-6-12-9-15-11-22-16-40-7-23-4-17-3-15-2-22-1-2v-39l2-3 1-15 6-22 5-13 10-19 9-14 14-15 13-13 9-7 14-9 15-8 7-4 23-8 19-5 10-2 17-3 16-2 1-1 41-1h23l43 1 5 2 31 2 1 1 22 2 5 2 17 2 10 2 11 1 4 2h4l7-18 8-18 10-19 11-21 14-24 14-22 11-16 10-14 13-16 11-12 18-18 13-10 15-10 19-9 18-5zm2 84-17 3-15 6-15 9-10 8-10 9-12 13-10 13-16 23-13 21-14 24-15 29-2 7 8 4 20 6 4 2 10 2 10 3 10 5 10 3 20 7 8 4 10 3 14 5 14 7 14 4 9-1 16-8 11-4 8-4 9-3 13-5 7-3 9-3 10-4 7-2 6-2 5-2 1-1 12-2 12-4 7-2 9-3 8-2-1-6-12-25-15-27-14-23-14-20-11-14-9-10-7-8-13-11-14-9-14-7-15-4-8-1zm-381 225-20 1-10 2-13 2-14 4-12 4-19 10-12 11-7 7v2l-4 2-7 11-7 14-6 17-1 9v42l5 26 6 21 7 19 5 12 12 25 12 24 9 14 6 11 5 7 3 5 8 9 3 1 7-10 7-8 13-13 7-9 7-8 28-28 8-6 16-15 11-11 12-9 12-11 11-8 14-14 1-24 2-7 2-18 2-7 2-15 6-26 5-22 7-24 4-10-1-1-21-3-30-3-4-1-30-1zm573 19-17 3-5 2-13 3-12 3-16 5-9 2-11 6 1 3 27 14 9 6 9 5 13 8 13 7 10 7 17 10 11 7 3 1-1-11-4-15-6-20-8-26-6-20zm-375 3-4 8-2 9-2 3-3 9-2 9-2 2-2 12-2 7-2 12-3 17 2 1 14-9 12-8 11-7 7-4 11-7 7-4 11-7 17-10 9-5 7-4-2-4-9-3-17-5-30-8-20-4zm187 63-23 11-13 6-12 5-30 15-10 6-23 12-14 8-11 7-13 8-14 9-12 8-13 9-10 7-8 6-9 7-11 8-8 6-11 9-6 5-9 7-10 10-11 8-13 13-8 7-42 42-7 8-13 13-4 6-9 10-5 6-4 9 7 10 7 8 19 19 8 6 10 10h2l1 3 8 7 9 9 11 8 12 12 13 10 10 9 10 7 8 6 9 7 10 7 9 7 57 38 11 7 10 6 16 9 8 5 21 11 10 6 33 17 42 21 5 1 7 5h5l3-2 8-2 62-31 19-10 13-7 16-9 10-6 16-9 20-12 17-11 15-10 11-7 9-6 10-5 18-13 18-14 14-11 14-12 10-9 5-3 13-12 11-9 8-7 53-53 1-5-4-6-7-9-9-10-73-73-12-9-10-10-8-7-12-9-9-8-6-4-10-9-9-6-18-14-9-6-5-4-7-4-3-3-7-4-11-7-8-5-22-14-10-6-12-6-5-4-16-8-19-10-3-3-9-3-5-4-7-3-9-3-30-15-4-1zm448 362-10 6-27 27-5 3-7 6v2l-4 2-19 19-8 7-5 3-10 9-5 3-8 7-18 14-6 6-6 3-9 8-7 4-6 5-11 66-9 45-10 44v5h5l9 5 6-2 4 2 10 2 7 2 21 2 1 1 23 2 8 2 15 1h55l7-1 3-3h18l16-6 16-8 11-8 13-13 9-17 7-18 1-21 1-8-1-8-1-20-3-12v-7l-3-9-2-11-5-12-4-12-2-9-4-7-2-10-3-9-5-12-15-29-14-24-10-17zm-657 182 1 4 1 1 1 15 3 11 2 9 3 13 2 6 2 9 4 15 2 9 9-2 8-2 42-14 15-6 11-5-1-3-12-7-16-8-17-10-13-7-3-3-12-6-9-6-11-7zm424 0-16 8-11 6-10 7-19 11-9 6-6 3-10 6-22 12-6 4-4 2v2l12 4 20 8 36 12 14 4 10 1 4-8 6-24 9-41 4-20-1-3zm-216 116-13 5-24 12-14 5-12 6-11 4-20 8-17 6-15 5-10 3-8 3-12 5-1 4 9 25 21 42 12 22 13 22 13 19 10 13 12 14 8 8 15 11 9 5 11 5 15 3h26l16-4 13-6 10-6 11-9 18-18 9-12 10-14 12-19 12-21 12-22 9-17 13-28 4-11v-4l-48-17-27-10-29-12-37-17-16-8z" fill="#054D60"/>
<path transform="translate(1008,276)" d="m0 0h17l19 3 18 5 18 8 13 8 12 9 15 13 12 12 7 8 13 16 13 19 8 11 11 17 17 29 14 26 9 17 11 23 4 9 10-2 5-2 10-2 1-1 27-2 3-2h22l3 3 1 37 3 14 4 13 3 7 1 9-5 4-30 2-8 2-14 2 1 8 5 15 5 23 2 4 5 25 2 4 2 14 2 7 1 13 2 4 2 22 2 4 1 13 6 9 13 10 10 9 8 6 15 14 11 8 22 22 3 2v2l4 2 42 42 7 8 11 11 3 2-2 5-6 9h-2l-2 5-6 8-14 17-4 5-4 4h-2l-2 4-5 4-1 2h-3l-4-6-7-9-9-10-72-72-12-9-10-10-8-7-12-9-9-8-6-4-10-9-9-6-18-14-9-6-5-4-7-4-3-3-7-4-11-7-8-5-22-14-10-6-12-6-5-4-16-8-19-10-3-3-9-3-5-4-7-3-9-3-30-15-4-1h-8l-23 11-13 6-12 5-30 15-10 6-23 12-14 8-11 7-13 8-14 9-12 8-13 9-10 7-8 6-9 7-11 8-8 6-11 9-6 5-9 7-10 10-11 8-13 13-8 7-41 41-7 8-13 13-4 6-9 10-5 6-4 9 7 10 7 8 18 18 8 6 10 10 8 7 12 12 11 8 12 12 13 10 10 9 10 7 8 6 9 7 10 7 9 7 57 38 11 7 10 6 16 9 8 5 21 11 10 6 33 17 42 21 5 1 9 6-4 4-31 14-12 5-17 7-12 4-11 5-15 5-10-6-24-13-17-10-8-4-3-3-12-6-9-6-11-7-12-7v-2l-4-2-5-4-19-13-18-14-16-10-12-5-8-8-9-6-9-8-9-6-10-9-6-4-17-16-9-6-12-12-11-8-14-14-8-7-29-29-4 1-2 3h-2l-5 10-8 11-4 7-6 10-4 5-3 6-5 6-5 1-7-6-6-3-5-4-33-11-10-1-5-4 1-6 9-16 8-13 9-14 8-12 9-13 5-6 3-5 4-5-1-4-6-9-9-10-6-9-8-9-4-6-8-10-9-14-8-12-8-13-7-11-6-12-9-15-11-22-16-40-7-23-4-17-3-15-2-22-1-2v-39l2-3 1-15 6-22 5-13 10-19 9-14 14-15 13-13 9-7 14-9 15-8 7-4 23-8 19-5 10-2 17-3 16-2 1-1 41-1h23l43 1 5 2 31 2 1 1 22 2 5 2 17 2 10 2 11 1 4 2h4l7-18 8-18 10-19 11-21 14-24 14-22 11-16 10-14 13-16 11-12 18-18 13-10 15-10 19-9 18-5zm2 84-17 3-15 6-15 9-10 8-10 9-12 13-10 13-16 23-13 21-14 24-15 29-2 7 8 4 20 6 4 2 10 2 10 3 10 5 10 3 20 7 8 4 10 3 14 5 14 7 14 4 9-1 16-8 11-4 8-4 9-3 13-5 7-3 9-3 10-4 7-2 6-2 5-2 1-1 12-2 12-4 7-2 9-3 8-2-1-6-12-25-15-27-14-23-14-20-11-14-9-10-7-8-13-11-14-9-14-7-15-4-8-1zm-381 225-20 1-10 2-13 2-14 4-12 4-19 10-12 11-7 7v2l-4 2-7 11-7 14-6 17-1 9v42l5 26 6 21 7 19 5 12 12 25 12 24 9 14 6 11 5 7 3 5 8 9 3 1 7-10 7-8 13-13 7-9 7-8 28-28 8-6 16-15 11-11 12-9 12-11 11-8 14-14 1-24 2-7 2-18 2-7 2-15 6-26 5-22 7-24 4-10-1-1-21-3-30-3-4-1-30-1zm573 19-17 3-5 2-13 3-12 3-16 5-9 2-11 6 1 3 27 14 9 6 9 5 13 8 13 7 10 7 17 10 11 7 3 1-1-11-4-15-6-20-8-26-6-20zm-375 3-4 8-2 9-2 3-3 9-2 9-2 2-2 12-2 7-2 12-3 17 2 1 14-9 12-8 11-7 7-4 11-7 7-4 11-7 17-10 9-5 7-4-2-4-9-3-17-5-30-8-20-4z" fill="#AECD14"/>
<path transform="translate(1235,1109)" d="m0 0 5 1 4 4-1 31-2 5-2 32-2 8-1 19-5 6-9 3-20 11-10 7-19 11-9 6-6 3-10 6-22 12-6 4-3 1-1 2 10 2 19 8 36 12 17 5 11 1-1 8-8 27-9 26-10 25-2 1v-2l-9-2-39-14-27-10-29-12-37-17-16-8h-9l-13 5-24 12-14 5-12 6-11 4-20 8-17 6-15 5-10 3-8 3-10 4h-2l-2 4-2 2-12 3-24 8-15 4h-11l-22 6-9 2-11 3-7 2-24 5-9 2-16 3-17 2-2 1-31 3-1 1-21 1h-44l-19-1-1-1-24-3-18-5-18-6-26-13-9-6-10-7-9-7-18-18-10-14-8-12-8-13-4-8-5-13-5-15v-11l7 1 20 10 8 2 1 1 20 2h6l3 2h13v-2l19-1 8-1 3-2h6l8 7 9 9 6 3 7 5 14 7 8 2 1 1 15 2 5 2 19 1 5 1 1 1h41l1-1 35-3 1-1 22-2 7-2 16-2 1-1 17-3 1-1 16-2 3-1v-16l-3-10-2-7-4-16-2-15-2-5-2-13-2-9-1-8-2-5-2-13-1-2-2-33-1-4 1-4 10 3 16 10 15 12 16 11 10 7 5 4 2 6 1 1 1 15 3 11 2 9 3 13 2 6 2 9 4 15 1 2v7l9-3 8-2 42-14 15-6 19-9 17-6 10-4 16-6 13-6 13-5 22-11 9-5 8-2 62-31 19-10 13-7 16-9 10-6 16-9 20-12 17-11 15-10 11-7z" fill="#07AF9A"/>
<path transform="translate(1106,806)" d="m0 0h8l2 1 19 2 9 3 23 11 12 11 13 13 9 14 4 9 3 7 3 9 3 28v13l-2 3-1 12-5 15-8 19-12 22-8 12-9 11-11 14-14 15-7 8-9 9-5 6-4 4h-2l-1 3-8 7-5 4-5 5-14 12-11 9-18 14-8 6-13 9-11 7-3 2-6-1-8-5-15-9-13-10-8-6-5-4-5-3-10-8-9-7-9-9-11-8-11-11-3-2v-2h-2l-7-8-10-10-8-11-8-8-8-11-6-8-10-15-6-10-8-16-5-12-6-15-2-13-1-2-1-12 1-18 2-7 1-9 5-13 7-14 7-8 6-9 9-9 10-7 6-5 12-5 15-5 1-1 10-1h29l11 1 20 8 14 8 10 9 16 15 6 2 8-7 15-15 11-7 9-4 14-6 7-2 1-1 23-2zm-213 41-16 8-5 5-3 5-4 5-7 14-2 14-2 7v14l5 12 6 4 5 1 9-5 3-3 1-3 1-25 2-4 2-8 7-8 15-15 1-2v-7l-6-7-4-2z" fill="#07AF9A"/>
<path transform="translate(1516,976)" d="m0 0h4l17 25 11 16 20 30 16 26 8 11 12 23 9 17 9 21 6 15 6 16 5 21 5 19 3 29 4 18v6l-2 7-2 22-4 19-6 16-8 17-9 15-12 13-8 10-14 14-18 11-10 6-9 5-7 3-12 6-11 2-5 2-7 2-1 1-13 1-14 3-7 1-3 1h-11l-3 1h-30l-3-1h-16l-2-1-27-2-3-1-20-2-23-4-2 1-23-5-12-4-23-5-19-6-8-4-1-5 8-27 7-19 4-14 4-13 5-9 6-1 9 5 6-2 4 2 10 2 7 2 21 2 1 1 23 2 8 2 15 1h55l7-1 3-3h18l16-6 16-8 11-8 12-12 9-17 7-18 1-21 1-8-1-8-1-20-3-12v-7l-3-9-2-11-5-12-4-12-2-9-4-7-2-10-3-9-5-12-15-29-14-24-9-15 1-4 7-8 7-9 24-24 7-8z" fill="#F5C419"/>
<path transform="translate(1590,546)" d="m0 0 4 1 5 4 14 16 6 8 9 14 9 16 5 15 5 19 2 10 1 14 2 4v12l-1 16-1 2-2 25-2 7-2 12-4 15-6 20-3 8-7 19-10 23-13 26-9 16-7 10-7 11-7 10-7 11-7 10-6 7-4 7-7 8-4 6-9 10-6 9-2 2v7l-5 3-9 8-7 8-21 21-8 11-7 6-10 6-27 27-5 3-6 5-24 24-8 7-5 3-10 9-5 3-8 7-18 14-6 6-6 3-9 8-7 4-4 3h-2l-3-4v-24l2-5 2-55h2v-19l9-9 5-4 5-3 13-12 11-9 8-7 52-52 2-5h2l1-3 6-5 5-6h2l2-4 8-9 8-10 7-10 1-2h2l2-4 6-9 4-5 5-5 8-11 12-20 10-19 8-16 5-11 5-12 4-9 5-14 2-9 5-15 3-13 2-25 2-8v-8l-2-8-2-19-3-9-6-13v-7l11-10 5-4 5-3 9-9 6-9 9-16 7-16 3-9 2-11z" fill="#07AF9A"/>
<path transform="translate(1008,276)" d="m0 0h17l19 3 18 5 18 8 13 8 12 9 15 13 12 12 7 8 13 16 13 19 8 11 11 17 17 29 14 26 9 17 11 23 4 9 10-2 5-2 10-2 1-1 27-2 3-2h22l3 3 1 37 3 14 4 13 3 7 1 9-5 4-30 2-8 2-16 2-6-13-8-20-9-20-10-24-3-4-10 2-16 3-21 5-18 4-8-18-12-23-14-24-11-18-12-17-11-14-9-10-7-8-11-9-13-9-16-8-15-4-8-1h-15l-17 3-15 6-15 9-10 8-10 9-11 12-10 13-16 23-13 21-14 24-15 29-3 7-12-2-31-7-14-3-6-2 1-6 7-16 7-15 8-16 12-23 14-24 14-22 11-16 10-14 13-16 11-12 18-18 13-10 15-10 19-9 18-5z" fill="#054D60"/>
<path transform="translate(1444,439)" d="m0 0h24l15 3 12 5 11 7 10 9 8 8 8 13 6 13 4 20v14l-3 16-4 11-7 14-12 13-9 8-16 9-11 4-21 3-21-2-16-5-15-8-11-9-7-7-9-13-6-13-3-13-1-9v-14l3-19 5-12 5-9 8-10 8-8 13-9 13-6 12-3zm7 56-9 4-7 8-3 8v11l3 7 9 8 8 3 10-1 8-4 7-8 3-9v-7l-4-9-7-7-5-3-4-1z" fill="#FA6651"/>
<path transform="translate(448,1109)" d="m0 0h30l12 2 14 6 10 7 10 9 9 11 6 10 6 16 2 12v16l-3 15-7 16-8 12-14 14-14 8-13 5-15 3h-20l-16-3-16-7-12-9-10-10-9-14-5-10-4-17v-21l3-15 7-16 9-13 10-10 13-9 15-6zm8 54-8 4-5 6-3 7v12l3 7 7 8 7 4h12l10-5 6-7 3-10-1-9-4-8-8-7-5-2z" fill="#054D60"/>
<path transform="translate(1116,1281)" d="m0 0 10 2 19 8 36 12 17 5 11 1-1 8-8 27-9 26-10 25-2 1v-2l-9-2-39-14-27-10-29-12-37-17-16-8v-3l24-13 18-8 22-11 19-10z" fill="#F4C419"/>
<path transform="translate(1496,449)" d="m0 0 6 2 10 8 12 12 8 13 6 13 4 20v14l-3 16-4 11-7 14-12 13-9 8-16 9-11 4-21 3-21-2-16-5-7-4 1-4 3-3h4v-2l11-5 1-2h2l2-5 4-5h2l1-4h2l2-5 8-16v-4l9-3 8-7 4-11 1-8 5-6 5-8h2l3-9 3-11v-11l-2-9-2-7z" fill="#CC5742"/>
<path transform="translate(1516,976)" d="m0 0h4l17 25 11 16 20 30 16 26-4 2-10 4-17 8-19 10-8 5-8 4h-2v2l-5 3h-3l-1 3-5-12-15-29-14-24-9-15 1-4 7-8 7-9 24-24 7-8z" fill="#AECD14"/>
<path transform="translate(761,595)" d="m0 0 18 1 14 3 15 2 19 4 1 2-4 8-2 9-2 3-3 9-2 9-2 2-2 12-2 7-2 12-4 19-18 13-10 8-12 9-15 11-11 7-6 2v-24l2-7 2-18 2-7 2-15 6-26 5-22 7-24z" fill="#07AF9A"/>
<path transform="translate(523,971)" d="m0 0 6 1 8 8 10 13 1 3 3 1 7 8 18 18 3 7-5 5h-2l-5 10-8 11-4 7-6 10-4 5-3 6-5 6-5 1-7-6-6-3-5-4-33-11-10-1-5-4 1-6 9-16 8-13 9-14 8-12 9-13 5-6 3-5z" fill="#07AF9A"/>
<path transform="translate(1294,498)" d="m0 0h23l3 3 1 37 3 14 4 13 3 7 1 9-5 4-30 2-8 2-16 2-6-13-8-20-9-20-10-24-2-4 11-3 5-2 10-2 1-1 27-2z" fill="#07AF9A"/>
<path transform="translate(1028,1419)" d="m0 0 18 1 12 4 8 7 4 5v6l-6 10-9 6-14 7-10 2-1 1-15 1h-14l-11-1-16-8-3-4v-10l5-9 9-6 17-8 11-2 1-1z" fill="#07AE9A"/>
<path transform="translate(1018,442)" d="m0 0h21l14 4 9 5 3 4 1 8-5 8-7 6-16 8-16 4-7 1h-22l-10-2-8-5-6-7-1-2v-6l6-8 8-7 11-5 13-4z" fill="#F3C419"/>
<path transform="translate(1398,684)" d="m0 0h13l8 4 6 7 3 10-2 12-4 7-8 5-7 2h-7l-8-3-5-4-6-12v-12l4-8 7-6z" fill="#F4C419"/>
<path transform="translate(1395,1239)" d="m0 0 10 1 7 4 6 7 2 5v12l-5 10-7 6-8 2h-7l-10-4-7-8-3-10 1-10 5-8 8-5z" fill="#F3C419"/>
<path transform="translate(386,917)" d="m0 0h10l9 4 5 4 5 9v11l-5 10-6 5-7 3h-12l-8-4-6-9-2-5v-10l4-9 8-7z" fill="#F4C419"/>
<path transform="translate(1644,968)" d="m0 0h7l8 4 7 7 3 7v10l-6 12-9 6-11 2-10-4-6-7-3-8v-11l5-10 8-6z" fill="#F3C419"/>
<path transform="translate(729,1540)" d="m0 0h11l8 4 7 8 3 9v6l-6 10-8 7-2 1h-16l-6-4-7-9-3-9 4-12 8-8z" fill="#07AF9A"/>
<path transform="translate(1303,1539)" d="m0 0h7l7 2 9 9 2 7v12l-3 7-7 7-5 2h-15l-8-7-4-5-1-2v-17l4-7 7-6z" fill="#07AF9A"/>
<path transform="translate(616,677)" d="m0 0 10 2 6 4 5 6 3 8v7l-5 10-9 7-5 2h-10l-8-4-6-8-2-5v-11l5-10 9-6z" fill="#07AF9B"/>
<path transform="translate(1301,374)" d="m0 0h8l7 3 5 4 5 10v9l-4 8-8 7-7 2h-8l-8-4-6-9-2-11 4-10 4-5 6-3z" fill="#07AF9A"/>
<path transform="translate(729,379)" d="m0 0h10l8 5 6 8 1 3v12l-4 6-7 6-8 3h-7l-8-4-4-5-3-6v-13l5-8 5-4z" fill="#07AF9A"/>
<path transform="translate(1082,1298)" d="m0 0 2 1-16 9-5 1v2l-12 5-22 11h-2v2l-4 3-2-3 21-12 24-11z" fill="#AECD14"/>
</svg>
