<svg width="192" height="22" viewBox="0 0 192 22" fill="none" xmlns="http://www.w3.org/2000/svg">
<path d="M11.0962 18H6.66504L0.0976562 0.421875H5.0415L9.91211 14.5698L14.3188 0.421875H17.3218L11.0962 18ZM37.4023 9.18652C37.4023 10.6025 37.1582 11.8802 36.6699 13.0195C36.1816 14.1507 35.5062 15.111 34.6436 15.9004C33.7809 16.6898 32.7596 17.2961 31.5796 17.7192C30.3996 18.1424 29.1219 18.354 27.7466 18.354C26.3713 18.354 25.0936 18.1424 23.9136 17.7192C22.7336 17.2961 21.7122 16.6898 20.8496 15.9004C19.987 15.111 19.3115 14.1507 18.8232 13.0195C18.335 11.8802 18.0908 10.6025 18.0908 9.18652C18.0908 7.74609 18.3309 6.46029 18.811 5.3291C19.2993 4.18978 19.9707 3.22949 20.8252 2.44824C21.6878 1.65885 22.7091 1.05664 23.8892 0.641602C25.0692 0.218424 26.355 0.00683594 27.7466 0.00683594C29.1382 0.00683594 30.424 0.218424 31.604 0.641602C32.784 1.05664 33.8013 1.65885 34.6558 2.44824C35.5184 3.22949 36.1898 4.18978 36.6699 5.3291C37.1582 6.46029 37.4023 7.74609 37.4023 9.18652ZM32.4707 9.18652C32.4707 8.64941 32.4463 8.1001 32.3975 7.53857C32.3486 6.97705 32.2591 6.4318 32.1289 5.90283C31.9987 5.37386 31.8197 4.87744 31.5918 4.41357C31.3721 3.94971 31.0872 3.54688 30.7373 3.20508C30.3874 2.85514 29.9642 2.58252 29.4678 2.38721C28.9795 2.18376 28.4058 2.08203 27.7466 2.08203C27.0793 2.08203 26.4974 2.18376 26.001 2.38721C25.5046 2.58252 25.0814 2.85107 24.7314 3.19287C24.3815 3.53467 24.0967 3.9375 23.877 4.40137C23.6572 4.86523 23.4823 5.36165 23.3521 5.89062C23.23 6.41146 23.1445 6.95671 23.0957 7.52637C23.0469 8.08789 23.0225 8.64128 23.0225 9.18652C23.0225 9.72363 23.0469 10.2729 23.0957 10.8345C23.1445 11.396 23.234 11.9412 23.3643 12.4702C23.4945 12.991 23.6694 13.4834 23.8892 13.9473C24.117 14.4111 24.4059 14.818 24.7559 15.168C25.1058 15.5098 25.5249 15.7824 26.0132 15.9858C26.5096 16.1893 27.0874 16.291 27.7466 16.291C28.3895 16.291 28.951 16.1893 29.4312 15.9858C29.9113 15.7743 30.3263 15.4935 30.6763 15.1436C31.0262 14.7855 31.3151 14.3745 31.543 13.9106C31.779 13.4386 31.9621 12.9422 32.0923 12.4214C32.2306 11.8924 32.3283 11.3512 32.3853 10.7979C32.4422 10.2445 32.4707 9.70736 32.4707 9.18652ZM53.0396 18H40.4175V0.421875H45.2637V15.7661H53.0396V18ZM59.5581 0.421875C59.3384 1.08105 59.1471 1.76465 58.9844 2.47266C58.8216 3.17253 58.6873 3.87646 58.5815 4.58447C58.4757 5.28434 58.3944 5.97607 58.3374 6.65967C58.2886 7.34326 58.2642 7.99023 58.2642 8.60059C58.2642 9.04818 58.2642 9.55273 58.2642 10.1143C58.2723 10.6676 58.3049 11.2332 58.3618 11.811C58.4269 12.3888 58.5286 12.9544 58.667 13.5078C58.8053 14.0531 59.0088 14.5413 59.2773 14.9727C59.554 15.404 59.904 15.7498 60.3271 16.0103C60.7585 16.2707 61.2915 16.4009 61.9263 16.4009C62.4878 16.4009 62.9679 16.3073 63.3667 16.1201C63.7736 15.9248 64.1154 15.6644 64.3921 15.3389C64.6769 15.0133 64.9007 14.639 65.0635 14.2158C65.2344 13.7926 65.3646 13.3491 65.4541 12.8853C65.5518 12.4214 65.6128 11.9535 65.6372 11.4814C65.6698 11.0013 65.686 10.5456 65.686 10.1143V0.421875H70.5322V9.35742C70.5322 10.6351 70.3288 11.8232 69.9219 12.9219C69.515 14.0205 68.9412 14.9767 68.2007 15.7905C67.4601 16.5962 66.5649 17.231 65.5151 17.6948C64.4653 18.1506 63.3016 18.3784 62.0239 18.3784C61.145 18.3784 60.3271 18.2523 59.5703 18C58.8135 17.7559 58.1177 17.4181 57.4829 16.9868C56.8563 16.5474 56.2948 16.0306 55.7983 15.4365C55.3101 14.8343 54.8991 14.1792 54.5654 13.4712C54.2399 12.7632 53.9917 12.0186 53.8208 11.2373C53.6499 10.4479 53.5726 9.65039 53.5889 8.84473V8.60059C53.597 7.94954 53.6621 7.27816 53.7842 6.58643C53.9062 5.88656 54.069 5.18669 54.2725 4.48682C54.484 3.78695 54.7363 3.09521 55.0293 2.41162C55.3223 1.71989 55.6478 1.05664 56.0059 0.421875H59.5581ZM76.5503 18H74.3042V0.421875H77.4536L88.1348 12.4946V0.421875H90.3687V18H87.2192L76.5503 5.93945V18ZM102.478 18H97.6318V2.66797H92.8467V0.421875H107.263V2.66797H102.478V18ZM125.366 9.58936V9.82129C125.35 10.5049 125.277 11.2129 125.146 11.9453C125.024 12.6777 124.849 13.4102 124.622 14.1426C124.394 14.875 124.121 15.5993 123.804 16.3154C123.486 17.0316 123.128 17.7152 122.729 18.3662C122.339 19.0254 121.916 19.6398 121.46 20.2095C121.004 20.7873 120.524 21.2959 120.02 21.7354L118.201 20.6855C118.486 20.2054 118.742 19.6805 118.97 19.1108C119.206 18.5493 119.417 17.9593 119.604 17.3408C119.792 16.7223 119.95 16.0876 120.081 15.4365C120.219 14.7855 120.333 14.1385 120.422 13.4956C120.512 12.8527 120.577 12.222 120.618 11.6035C120.667 10.9769 120.691 10.3828 120.691 9.82129C120.691 9.38184 120.687 8.88542 120.679 8.33203C120.679 7.77051 120.646 7.20085 120.581 6.62305C120.524 6.04525 120.426 5.48372 120.288 4.93848C120.15 4.38509 119.942 3.89274 119.666 3.46143C119.397 3.03011 119.047 2.68424 118.616 2.42383C118.193 2.16341 117.664 2.0332 117.029 2.0332C116.467 2.0332 115.983 2.13086 115.576 2.32617C115.177 2.51335 114.836 2.76969 114.551 3.09521C114.274 3.4126 114.05 3.78288 113.879 4.20605C113.717 4.62923 113.586 5.07682 113.489 5.54883C113.399 6.0127 113.338 6.4847 113.306 6.96484C113.281 7.43685 113.269 7.88444 113.269 8.30762V11.7134H118.53V13.7275H113.269V18H108.423V9.06445C108.423 7.78678 108.626 6.59863 109.033 5.5C109.44 4.40137 110.014 3.44922 110.754 2.64355C111.503 1.82975 112.398 1.19499 113.44 0.739258C114.49 0.275391 115.658 0.043457 116.943 0.043457C117.814 0.043457 118.628 0.169596 119.385 0.421875C120.15 0.666016 120.846 1.00781 121.472 1.44727C122.099 1.87858 122.656 2.39535 123.145 2.99756C123.641 3.59163 124.052 4.24268 124.377 4.95068C124.711 5.65869 124.963 6.40739 125.134 7.19678C125.305 7.98617 125.382 8.78369 125.366 9.58936ZM133.374 18H128.528V0.421875H137.17C137.984 0.421875 138.77 0.519531 139.526 0.714844C140.283 0.902018 140.951 1.20312 141.528 1.61816C142.114 2.02507 142.578 2.55404 142.92 3.20508C143.27 3.85612 143.445 4.64551 143.445 5.57324C143.445 6.29753 143.29 6.98112 142.981 7.62402C142.68 8.25879 142.273 8.82845 141.76 9.33301C141.256 9.82943 140.674 10.2445 140.015 10.5781C139.355 10.9036 138.672 11.1193 137.964 11.2251C138.281 11.7622 138.611 12.2708 138.953 12.751C139.303 13.2311 139.653 13.6828 140.002 14.106C140.361 14.521 140.715 14.9076 141.064 15.2656C141.414 15.6156 141.748 15.937 142.065 16.23C142.814 16.9136 143.555 17.5036 144.287 18H138.245C137.756 17.5361 137.292 16.9787 136.853 16.3276C136.479 15.7743 136.1 15.0907 135.718 14.2769C135.343 13.4549 135.055 12.5068 134.851 11.4326H133.374V18ZM138.525 5.57324C138.525 4.39323 138.236 3.52653 137.659 2.97314C137.089 2.41976 136.23 2.14307 135.083 2.14307H133.374V9.77246H135.083C135.693 9.77246 136.214 9.65853 136.646 9.43066C137.085 9.19466 137.443 8.88542 137.72 8.50293C137.996 8.1123 138.2 7.66471 138.33 7.16016C138.46 6.6556 138.525 6.12663 138.525 5.57324ZM151.416 18H146.57V0.421875H151.416V18ZM159.143 16.1689C159.143 16.4782 159.086 16.7712 158.972 17.0479C158.858 17.3164 158.7 17.5524 158.496 17.7559C158.293 17.9512 158.057 18.1058 157.788 18.2197C157.52 18.3418 157.231 18.4028 156.921 18.4028C156.612 18.4028 156.323 18.3418 156.055 18.2197C155.786 18.1058 155.55 17.9512 155.347 17.7559C155.143 17.5524 154.985 17.3164 154.871 17.0479C154.757 16.7712 154.7 16.4782 154.7 16.1689C154.7 15.8678 154.757 15.583 154.871 15.3145C154.985 15.0378 155.143 14.8018 155.347 14.6064C155.55 14.403 155.786 14.2443 156.055 14.1304C156.323 14.0083 156.612 13.9473 156.921 13.9473C157.231 13.9473 157.52 14.0083 157.788 14.1304C158.057 14.2443 158.293 14.403 158.496 14.6064C158.7 14.8018 158.858 15.0378 158.972 15.3145C159.086 15.583 159.143 15.8678 159.143 16.1689ZM176.27 18H161.536V15.7539H161.523L170.715 2.66797H161.536V0.421875H176.27V2.66797L167.078 15.7539H176.27V18ZM191.98 18H179.358V0.421875H191.98V2.66797H184.204V8.1001H190.21V10.334H184.204V15.7539H191.98V18Z" fill="white"/>
</svg>
