<svg width="269" height="57" viewBox="0 0 269 57" fill="none" xmlns="http://www.w3.org/2000/svg">
<path d="M15.5347 26H9.33105L0.136719 1.39062H7.05811L13.877 21.1978L20.0464 1.39062H24.2505L15.5347 26ZM52.3633 13.6611C52.3633 15.6436 52.0215 17.4323 51.3379 19.0273C50.6543 20.611 49.7087 21.9554 48.501 23.0605C47.2933 24.1657 45.8634 25.0145 44.2114 25.6069C42.5594 26.1994 40.7707 26.4956 38.8452 26.4956C36.9198 26.4956 35.131 26.1994 33.479 25.6069C31.827 25.0145 30.3971 24.1657 29.1895 23.0605C27.9818 21.9554 27.0361 20.611 26.3525 19.0273C25.6689 17.4323 25.3271 15.6436 25.3271 13.6611C25.3271 11.6445 25.6632 9.8444 26.3354 8.26074C27.019 6.66569 27.959 5.32129 29.1553 4.22754C30.363 3.1224 31.7928 2.2793 33.4448 1.69824C35.0968 1.10579 36.897 0.80957 38.8452 0.80957C40.7935 0.80957 42.5936 1.10579 44.2456 1.69824C45.8976 2.2793 47.3218 3.1224 48.5181 4.22754C49.7257 5.32129 50.6657 6.66569 51.3379 8.26074C52.0215 9.8444 52.3633 11.6445 52.3633 13.6611ZM45.459 13.6611C45.459 12.9092 45.4248 12.1401 45.3564 11.354C45.2881 10.5679 45.1628 9.80452 44.9805 9.06396C44.7982 8.3234 44.5475 7.62842 44.2285 6.979C43.9209 6.32959 43.5221 5.76562 43.0322 5.28711C42.5423 4.7972 41.9499 4.41553 41.2549 4.14209C40.5713 3.85726 39.7681 3.71484 38.8452 3.71484C37.911 3.71484 37.0964 3.85726 36.4014 4.14209C35.7064 4.41553 35.1139 4.7915 34.624 5.27002C34.1341 5.74854 33.7354 6.3125 33.4277 6.96191C33.1201 7.61133 32.8752 8.30632 32.6929 9.04688C32.522 9.77604 32.4023 10.5394 32.334 11.3369C32.2656 12.123 32.2314 12.8978 32.2314 13.6611C32.2314 14.4131 32.2656 15.1821 32.334 15.9683C32.4023 16.7544 32.5277 17.5177 32.71 18.2583C32.8923 18.9875 33.1372 19.6768 33.4448 20.3262C33.7638 20.9756 34.1683 21.5452 34.6582 22.0352C35.1481 22.5137 35.7349 22.8953 36.4185 23.1802C37.1134 23.465 37.9224 23.6074 38.8452 23.6074C39.7453 23.6074 40.5314 23.465 41.2036 23.1802C41.8758 22.884 42.4569 22.4909 42.9468 22.001C43.4367 21.4997 43.8411 20.9243 44.1602 20.2749C44.4906 19.6141 44.7469 18.9191 44.9292 18.1899C45.1229 17.4494 45.2596 16.6917 45.3394 15.917C45.4191 15.1423 45.459 14.3903 45.459 13.6611ZM74.2554 26H56.5845V1.39062H63.3691V22.8726H74.2554V26ZM83.3813 1.39062C83.0737 2.31348 82.806 3.27051 82.5781 4.26172C82.3503 5.24154 82.1623 6.22705 82.0142 7.21826C81.866 8.19808 81.7521 9.1665 81.6724 10.1235C81.604 11.0806 81.5698 11.9863 81.5698 12.8408C81.5698 13.4674 81.5698 14.1738 81.5698 14.96C81.5812 15.7347 81.6268 16.5265 81.7065 17.3354C81.7977 18.1444 81.9401 18.9362 82.1338 19.7109C82.3275 20.4743 82.6123 21.1579 82.9883 21.7617C83.3757 22.3656 83.8656 22.8498 84.458 23.2144C85.0618 23.5789 85.8081 23.7612 86.6968 23.7612C87.4829 23.7612 88.1551 23.6302 88.7134 23.3682C89.283 23.0947 89.7616 22.7301 90.1489 22.2744C90.5477 21.8187 90.861 21.2946 91.0889 20.7021C91.3281 20.1097 91.5104 19.4888 91.6357 18.8394C91.7725 18.1899 91.8579 17.5348 91.8921 16.874C91.9377 16.2018 91.9604 15.5638 91.9604 14.96V1.39062H98.7451V13.9004C98.7451 15.6891 98.4603 17.3525 97.8906 18.8906C97.321 20.4287 96.5177 21.7674 95.481 22.9067C94.4442 24.0347 93.1909 24.9233 91.7212 25.5728C90.2515 26.2108 88.6222 26.5298 86.8335 26.5298C85.603 26.5298 84.458 26.3532 83.3984 26C82.3389 25.6582 81.3647 25.1854 80.4761 24.5815C79.5988 23.9663 78.8127 23.2428 78.1177 22.4111C77.4341 21.568 76.8587 20.6509 76.3916 19.6597C75.9359 18.6685 75.5884 17.626 75.3491 16.5322C75.1099 15.4271 75.0016 14.3105 75.0244 13.1826V12.8408C75.0358 11.9294 75.127 10.9894 75.2979 10.021C75.4688 9.04118 75.6966 8.06136 75.9814 7.08154C76.2777 6.10173 76.6309 5.1333 77.041 4.17627C77.4512 3.20785 77.9069 2.2793 78.4082 1.39062H83.3813ZM107.17 26H104.026V1.39062H108.435L123.389 18.2925V1.39062H126.516V26H122.107L107.17 9.11523V26ZM143.469 26H136.685V4.53516H129.985V1.39062H150.168V4.53516H143.469V26ZM175.513 14.2251V14.5498C175.49 15.5068 175.387 16.498 175.205 17.5234C175.034 18.5488 174.789 19.5742 174.47 20.5996C174.151 21.625 173.77 22.639 173.325 23.6416C172.881 24.6442 172.38 25.6012 171.821 26.5127C171.274 27.4355 170.682 28.2957 170.044 29.0933C169.406 29.9022 168.734 30.6143 168.027 31.2295L165.481 29.7598C165.88 29.0876 166.239 28.3527 166.558 27.5552C166.888 26.769 167.184 25.943 167.446 25.0771C167.708 24.2113 167.931 23.3226 168.113 22.4111C168.306 21.4997 168.466 20.5939 168.591 19.6938C168.717 18.7938 168.808 17.9108 168.865 17.0449C168.933 16.1676 168.967 15.3359 168.967 14.5498C168.967 13.9346 168.962 13.2396 168.95 12.4648C168.95 11.6787 168.905 10.8812 168.813 10.0723C168.734 9.26335 168.597 8.47721 168.403 7.71387C168.21 6.93913 167.919 6.24984 167.532 5.646C167.156 5.04215 166.666 4.55794 166.062 4.19336C165.47 3.82878 164.729 3.64648 163.84 3.64648C163.054 3.64648 162.376 3.7832 161.807 4.05664C161.248 4.31868 160.77 4.67757 160.371 5.1333C159.984 5.57764 159.67 6.09603 159.431 6.68848C159.203 7.28092 159.021 7.90755 158.884 8.56836C158.759 9.21777 158.674 9.87858 158.628 10.5508C158.594 11.2116 158.577 11.8382 158.577 12.4307V17.1987H165.942V20.0186H158.577V26H151.792V13.4902C151.792 11.7015 152.077 10.0381 152.646 8.5C153.216 6.96191 154.019 5.62891 155.056 4.50098C156.104 3.36165 157.358 2.47298 158.816 1.83496C160.286 1.18555 161.921 0.86084 163.721 0.86084C164.94 0.86084 166.079 1.03743 167.139 1.39062C168.21 1.73242 169.184 2.21094 170.061 2.82617C170.938 3.43001 171.719 4.15348 172.402 4.99658C173.097 5.82829 173.673 6.73975 174.128 7.73096C174.596 8.72217 174.949 9.77035 175.188 10.8755C175.427 11.9806 175.535 13.0972 175.513 14.2251ZM186.724 26H179.939V1.39062H192.039C193.178 1.39062 194.277 1.52734 195.337 1.80078C196.396 2.06283 197.331 2.48438 198.14 3.06543C198.96 3.63509 199.609 4.37565 200.088 5.28711C200.578 6.19857 200.823 7.30371 200.823 8.60254C200.823 9.61654 200.606 10.5736 200.173 11.4736C199.752 12.3623 199.182 13.1598 198.464 13.8662C197.758 14.5612 196.943 15.1423 196.021 15.6094C195.098 16.0651 194.141 16.367 193.149 16.5151C193.594 17.2671 194.055 17.9792 194.534 18.6514C195.024 19.3236 195.514 19.9559 196.003 20.5483C196.505 21.1294 197 21.6706 197.49 22.1719C197.98 22.6618 198.447 23.1118 198.892 23.522C199.94 24.479 200.977 25.305 202.002 26H193.542C192.859 25.3506 192.209 24.5701 191.594 23.6587C191.07 22.884 190.54 21.9269 190.005 20.7876C189.481 19.6369 189.076 18.3096 188.792 16.8057H186.724V26ZM193.936 8.60254C193.936 6.95052 193.531 5.73714 192.722 4.9624C191.925 4.18766 190.723 3.80029 189.116 3.80029H186.724V14.4814H189.116C189.971 14.4814 190.7 14.3219 191.304 14.0029C191.919 13.6725 192.42 13.2396 192.808 12.7041C193.195 12.1572 193.48 11.5306 193.662 10.8242C193.844 10.1178 193.936 9.37728 193.936 8.60254ZM211.982 26H205.198V1.39062H211.982V26ZM222.8 23.4365C222.8 23.8695 222.721 24.2796 222.561 24.667C222.402 25.043 222.179 25.3734 221.895 25.6582C221.61 25.9316 221.279 26.1481 220.903 26.3076C220.527 26.4785 220.123 26.564 219.69 26.564C219.257 26.564 218.853 26.4785 218.477 26.3076C218.101 26.1481 217.77 25.9316 217.485 25.6582C217.201 25.3734 216.978 25.043 216.819 24.667C216.659 24.2796 216.58 23.8695 216.58 23.4365C216.58 23.015 216.659 22.6162 216.819 22.2402C216.978 21.8529 217.201 21.5225 217.485 21.249C217.77 20.9642 218.101 20.742 218.477 20.5825C218.853 20.4116 219.257 20.3262 219.69 20.3262C220.123 20.3262 220.527 20.4116 220.903 20.5825C221.279 20.742 221.61 20.9642 221.895 21.249C222.179 21.5225 222.402 21.8529 222.561 22.2402C222.721 22.6162 222.8 23.015 222.8 23.4365ZM246.777 26H226.15V22.8555H226.133L239.001 4.53516H226.15V1.39062H246.777V4.53516L233.909 22.8555H246.777V26ZM268.772 26H251.101V1.39062H268.772V4.53516H257.886V12.1401H266.294V15.2676H257.886V22.8555H268.772V26Z" fill="#91C612"/>
<path d="M4.73 56.17C3.42333 56.17 2.47667 55.91 1.89 55.39C1.30333 54.87 0.996667 54.0033 0.97 52.79C0.956667 51.9233 0.946667 51.1 0.94 50.32C0.933333 49.5333 0.93 48.76 0.93 48C0.93 47.24 0.933333 46.4667 0.94 45.68C0.946667 44.8933 0.956667 44.0667 0.97 43.2C0.983333 42.0267 1.29333 41.1733 1.9 40.64C2.50667 40.1067 3.45 39.84 4.73 39.84C5.99667 39.84 6.92667 40.1133 7.52 40.66C8.12 41.2 8.44 42.05 8.48 43.21C8.49333 43.4967 8.5 43.7833 8.5 44.07C8.5 44.3567 8.49667 44.6433 8.49 44.93C8.48333 45.21 8.47333 45.4933 8.46 45.78H6.17C6.18333 45.4733 6.19 45.1733 6.19 44.88C6.19667 44.5867 6.2 44.2933 6.2 44C6.2 43.7 6.19667 43.4 6.19 43.1C6.17667 42.6 6.05667 42.25 5.83 42.05C5.61 41.8433 5.24333 41.74 4.73 41.74C4.21667 41.74 3.84667 41.8433 3.62 42.05C3.39333 42.25 3.27333 42.6 3.26 43.1C3.24 43.9933 3.22333 44.8433 3.21 45.65C3.20333 46.45 3.2 47.2367 3.2 48.01C3.2 48.7767 3.20333 49.56 3.21 50.36C3.22333 51.1533 3.24 51.9967 3.26 52.89C3.27333 53.3967 3.39333 53.7567 3.62 53.97C3.84667 54.1767 4.21667 54.28 4.73 54.28C5.27667 54.28 5.66333 54.1767 5.89 53.97C6.12333 53.7567 6.25 53.3967 6.27 52.89C6.28333 52.5967 6.29 52.3167 6.29 52.05C6.29667 51.7833 6.29667 51.4967 6.29 51.19C6.28333 50.8767 6.27333 50.52 6.26 50.12H8.55C8.57 50.6 8.58 51.0633 8.58 51.51C8.58667 51.9567 8.58 52.3833 8.56 52.79C8.52 54.0033 8.20333 54.87 7.61 55.39C7.01667 55.91 6.05667 56.17 4.73 56.17ZM12.6459 56.14C11.8059 56.14 11.1693 55.9367 10.7359 55.53C10.3093 55.1167 10.0593 54.4467 9.98594 53.52C9.97927 53.38 9.9726 53.2233 9.96594 53.05C9.96594 52.8767 9.96927 52.7233 9.97594 52.59C10.0159 52.0767 10.1259 51.63 10.3059 51.25C10.4926 50.87 10.7859 50.53 11.1859 50.23C11.5859 49.93 12.1226 49.6433 12.7959 49.37C13.1559 49.23 13.5126 49.1 13.8659 48.98C14.2259 48.86 14.6093 48.7433 15.0159 48.63V46.7C15.0159 46.3 14.9193 46.01 14.7259 45.83C14.5326 45.65 14.2159 45.56 13.7759 45.56C13.3959 45.56 13.0993 45.6367 12.8859 45.79C12.6793 45.9433 12.5659 46.2067 12.5459 46.58C12.5393 46.7133 12.5326 46.91 12.5259 47.17C12.5259 47.4233 12.5259 47.67 12.5259 47.91C12.5326 48.15 12.5393 48.3133 12.5459 48.4H10.3159C10.3093 48.2133 10.3026 47.9767 10.2959 47.69C10.2893 47.4033 10.2893 47.1233 10.2959 46.85C10.3293 46.15 10.4593 45.58 10.6859 45.14C10.9193 44.6933 11.2893 44.3633 11.7959 44.15C12.3093 43.9367 12.9959 43.83 13.8559 43.83C14.7293 43.83 15.4126 43.9467 15.9059 44.18C16.4059 44.4067 16.7559 44.77 16.9559 45.27C17.1626 45.7633 17.2659 46.4067 17.2659 47.2L17.2559 56H14.9759V54.79H14.6359C14.4226 55.2367 14.1759 55.5733 13.8959 55.8C13.6226 56.0267 13.2059 56.14 12.6459 56.14ZM13.4859 54.48C13.8259 54.48 14.1259 54.3933 14.3859 54.22C14.6459 54.0467 14.8459 53.8067 14.9859 53.5L15.0059 50.25C14.7393 50.3233 14.4659 50.41 14.1859 50.51C13.9059 50.6033 13.6226 50.7267 13.3359 50.88C12.9093 51.0867 12.6293 51.3367 12.4959 51.63C12.3693 51.9167 12.2993 52.2367 12.2859 52.59C12.2793 52.7633 12.2759 52.9 12.2759 53C12.2826 53.1 12.2893 53.22 12.2959 53.36C12.3293 53.7133 12.4459 53.99 12.6459 54.19C12.8459 54.3833 13.1259 54.48 13.4859 54.48ZM21.6022 56.17C20.7955 56.17 20.1855 55.9433 19.7722 55.49C19.3655 55.03 19.1355 54.2733 19.0822 53.22C19.0622 52.78 19.0489 52.2767 19.0422 51.71C19.0355 51.1367 19.0322 50.55 19.0322 49.95C19.0389 49.35 19.0455 48.7767 19.0522 48.23C19.0589 47.6767 19.0689 47.1933 19.0822 46.78C19.1289 45.7133 19.3689 44.9567 19.8022 44.51C20.2422 44.0567 20.8555 43.83 21.6422 43.83C22.2422 43.83 22.6989 43.9467 23.0122 44.18C23.3255 44.4067 23.6122 44.7467 23.8722 45.2H24.2322V40H26.5622V56H24.2322V54.79H23.8522C23.5989 55.2433 23.3055 55.5867 22.9722 55.82C22.6455 56.0533 22.1889 56.17 21.6022 56.17ZM22.5122 54.48C22.8655 54.48 23.2055 54.3933 23.5322 54.22C23.8589 54.0467 24.0922 53.7933 24.2322 53.46V46.53C24.0922 46.1967 23.8589 45.9467 23.5322 45.78C23.2055 45.6067 22.8689 45.52 22.5222 45.52C22.1489 45.52 21.8755 45.6033 21.7022 45.77C21.5355 45.9367 21.4422 46.19 21.4222 46.53C21.3889 47.2833 21.3655 48.0633 21.3522 48.87C21.3455 49.67 21.3455 50.46 21.3522 51.24C21.3655 52.0133 21.3855 52.7267 21.4122 53.38C21.4322 53.7733 21.5255 54.0567 21.6922 54.23C21.8655 54.3967 22.1389 54.48 22.5122 54.48ZM30.6733 56.14C29.8333 56.14 29.1966 55.9367 28.7633 55.53C28.3366 55.1167 28.0866 54.4467 28.0133 53.52C28.0066 53.38 27.9999 53.2233 27.9933 53.05C27.9933 52.8767 27.9966 52.7233 28.0033 52.59C28.0433 52.0767 28.1533 51.63 28.3333 51.25C28.5199 50.87 28.8133 50.53 29.2133 50.23C29.6133 49.93 30.1499 49.6433 30.8233 49.37C31.1833 49.23 31.5399 49.1 31.8933 48.98C32.2533 48.86 32.6366 48.7433 33.0433 48.63V46.7C33.0433 46.3 32.9466 46.01 32.7533 45.83C32.5599 45.65 32.2433 45.56 31.8033 45.56C31.4233 45.56 31.1266 45.6367 30.9133 45.79C30.7066 45.9433 30.5933 46.2067 30.5733 46.58C30.5666 46.7133 30.5599 46.91 30.5533 47.17C30.5533 47.4233 30.5533 47.67 30.5533 47.91C30.5599 48.15 30.5666 48.3133 30.5733 48.4H28.3433C28.3366 48.2133 28.3299 47.9767 28.3233 47.69C28.3166 47.4033 28.3166 47.1233 28.3233 46.85C28.3566 46.15 28.4866 45.58 28.7133 45.14C28.9466 44.6933 29.3166 44.3633 29.8233 44.15C30.3366 43.9367 31.0233 43.83 31.8833 43.83C32.7566 43.83 33.4399 43.9467 33.9333 44.18C34.4333 44.4067 34.7833 44.77 34.9833 45.27C35.1899 45.7633 35.2933 46.4067 35.2933 47.2L35.2833 56H33.0033V54.79H32.6633C32.4499 55.2367 32.2033 55.5733 31.9233 55.8C31.6499 56.0267 31.2333 56.14 30.6733 56.14ZM31.5133 54.48C31.8533 54.48 32.1533 54.3933 32.4133 54.22C32.6733 54.0467 32.8733 53.8067 33.0133 53.5L33.0333 50.25C32.7666 50.3233 32.4933 50.41 32.2133 50.51C31.9333 50.6033 31.6499 50.7267 31.3633 50.88C30.9366 51.0867 30.6566 51.3367 30.5233 51.63C30.3966 51.9167 30.3266 52.2367 30.3133 52.59C30.3066 52.7633 30.3033 52.9 30.3033 53C30.3099 53.1 30.3166 53.22 30.3233 53.36C30.3566 53.7133 30.4733 53.99 30.6733 54.19C30.8733 54.3833 31.1533 54.48 31.5133 54.48ZM43.8569 56.14C43.0169 56.14 42.3802 55.9367 41.9469 55.53C41.5202 55.1167 41.2702 54.4467 41.1969 53.52C41.1902 53.38 41.1835 53.2233 41.1769 53.05C41.1769 52.8767 41.1802 52.7233 41.1869 52.59C41.2269 52.0767 41.3369 51.63 41.5169 51.25C41.7035 50.87 41.9969 50.53 42.3969 50.23C42.7969 49.93 43.3335 49.6433 44.0069 49.37C44.3669 49.23 44.7235 49.1 45.0769 48.98C45.4369 48.86 45.8202 48.7433 46.2269 48.63V46.7C46.2269 46.3 46.1302 46.01 45.9369 45.83C45.7435 45.65 45.4269 45.56 44.9869 45.56C44.6069 45.56 44.3102 45.6367 44.0969 45.79C43.8902 45.9433 43.7769 46.2067 43.7569 46.58C43.7502 46.7133 43.7435 46.91 43.7369 47.17C43.7369 47.4233 43.7369 47.67 43.7369 47.91C43.7435 48.15 43.7502 48.3133 43.7569 48.4H41.5269C41.5202 48.2133 41.5135 47.9767 41.5069 47.69C41.5002 47.4033 41.5002 47.1233 41.5069 46.85C41.5402 46.15 41.6702 45.58 41.8969 45.14C42.1302 44.6933 42.5002 44.3633 43.0069 44.15C43.5202 43.9367 44.2069 43.83 45.0669 43.83C45.9402 43.83 46.6235 43.9467 47.1169 44.18C47.6169 44.4067 47.9669 44.77 48.1669 45.27C48.3735 45.7633 48.4769 46.4067 48.4769 47.2L48.4669 56H46.1869V54.79H45.8469C45.6335 55.2367 45.3869 55.5733 45.1069 55.8C44.8335 56.0267 44.4169 56.14 43.8569 56.14ZM44.6969 54.48C45.0369 54.48 45.3369 54.3933 45.5969 54.22C45.8569 54.0467 46.0569 53.8067 46.1969 53.5L46.2169 50.25C45.9502 50.3233 45.6769 50.41 45.3969 50.51C45.1169 50.6033 44.8335 50.7267 44.5469 50.88C44.1202 51.0867 43.8402 51.3367 43.7069 51.63C43.5802 51.9167 43.5102 52.2367 43.4969 52.59C43.4902 52.7633 43.4869 52.9 43.4869 53C43.4935 53.1 43.5002 53.22 43.5069 53.36C43.5402 53.7133 43.6569 53.99 43.8569 54.19C44.0569 54.3833 44.3369 54.48 44.6969 54.48ZM44.2369 43.2L46.0369 40.64H47.7369L45.8469 43.2H44.2369ZM54.5531 56.17C53.2131 56.17 52.2598 55.9333 51.6931 55.46C51.1331 54.9867 50.8531 54.1867 50.8531 53.06L50.8331 45.75H49.7631V44H50.8931V40.6H53.2131V44H55.3831V45.75H53.1531L53.1731 53.33C53.1731 53.77 53.2731 54.0667 53.4731 54.22C53.6731 54.3733 54.0365 54.45 54.5631 54.45C54.7565 54.45 54.9298 54.4467 55.0831 54.44C55.2431 54.4267 55.4198 54.4167 55.6131 54.41V56.07C55.4531 56.0967 55.2865 56.12 55.1131 56.14C54.9465 56.16 54.7598 56.17 54.5531 56.17ZM60.3794 56.17C59.5127 56.17 58.816 56.0567 58.2894 55.83C57.7694 55.6033 57.386 55.24 57.1394 54.74C56.8927 54.24 56.746 53.58 56.6994 52.76C56.686 52.4267 56.6727 52.0267 56.6594 51.56C56.6527 51.0867 56.6494 50.5867 56.6494 50.06C56.6494 49.5333 56.6527 49.0233 56.6594 48.53C56.6727 48.0367 56.686 47.6033 56.6994 47.23C56.7527 46.4033 56.9027 45.74 57.1494 45.24C57.396 44.74 57.7794 44.38 58.2994 44.16C58.8194 43.94 59.5127 43.83 60.3794 43.83C61.266 43.83 61.966 43.9467 62.4794 44.18C62.9994 44.4067 63.376 44.77 63.6094 45.27C63.8494 45.77 63.9927 46.4233 64.0394 47.23C64.0527 47.5833 64.0627 48 64.0694 48.48C64.0827 48.9533 64.0894 49.45 64.0894 49.97C64.0894 50.4833 64.0827 50.9833 64.0694 51.47C64.0627 51.9567 64.0527 52.3867 64.0394 52.76C63.9927 53.58 63.8494 54.24 63.6094 54.74C63.3694 55.24 62.9894 55.6033 62.4694 55.83C61.956 56.0567 61.2594 56.17 60.3794 56.17ZM60.3794 54.44C60.8727 54.44 61.2194 54.3467 61.4194 54.16C61.6194 53.9667 61.726 53.6833 61.7394 53.31C61.7594 52.71 61.7727 52.1367 61.7794 51.59C61.7927 51.0367 61.7994 50.4967 61.7994 49.97C61.7994 49.4367 61.7927 48.9 61.7794 48.36C61.7727 47.82 61.7594 47.26 61.7394 46.68C61.726 46.2933 61.616 46.01 61.4094 45.83C61.2094 45.65 60.866 45.56 60.3794 45.56C59.8994 45.56 59.5494 45.6567 59.3294 45.85C59.116 46.0433 59.0027 46.3267 58.9894 46.7C58.976 47.1667 58.9627 47.6667 58.9494 48.2C58.9427 48.7333 58.9394 49.2833 58.9394 49.85C58.9394 50.4167 58.9427 50.99 58.9494 51.57C58.9627 52.1433 58.9827 52.7167 59.0094 53.29C59.0227 53.6833 59.1327 53.9733 59.3394 54.16C59.5527 54.3467 59.8994 54.44 60.3794 54.44ZM65.9128 56V44H68.2128V45.2H68.6428C68.8961 44.76 69.1695 44.4233 69.4628 44.19C69.7561 43.95 70.1995 43.83 70.7928 43.83C71.3595 43.83 71.8328 43.95 72.2128 44.19C72.5928 44.4233 72.8661 44.81 73.0328 45.35H73.4128C73.6661 44.9033 73.9661 44.54 74.3128 44.26C74.6595 43.9733 75.1295 43.83 75.7228 43.83C76.5028 43.83 77.0995 44.0567 77.5128 44.51C77.9328 44.9633 78.1428 45.72 78.1428 46.78V56H75.8328V46.59C75.8328 46.21 75.7395 45.9367 75.5528 45.77C75.3661 45.6033 75.1028 45.52 74.7628 45.52C74.4361 45.52 74.1361 45.6167 73.8628 45.81C73.5961 45.9967 73.3861 46.2433 73.2328 46.55V56H70.9128V46.59C70.9128 46.2167 70.8228 45.9467 70.6428 45.78C70.4695 45.6067 70.2061 45.52 69.8528 45.52C69.5061 45.52 69.1795 45.61 68.8728 45.79C68.5661 45.97 68.3461 46.2167 68.2128 46.53V56H65.9128ZM83.6411 56.17C82.7744 56.17 82.0778 56.0567 81.5511 55.83C81.0311 55.6033 80.6478 55.24 80.4011 54.74C80.1544 54.24 80.0078 53.58 79.9611 52.76C79.9478 52.4267 79.9344 52.0267 79.9211 51.56C79.9144 51.0867 79.9111 50.5867 79.9111 50.06C79.9111 49.5333 79.9144 49.0233 79.9211 48.53C79.9344 48.0367 79.9478 47.6033 79.9611 47.23C80.0144 46.4033 80.1644 45.74 80.4111 45.24C80.6578 44.74 81.0411 44.38 81.5611 44.16C82.0811 43.94 82.7744 43.83 83.6411 43.83C84.5278 43.83 85.2278 43.9467 85.7411 44.18C86.2611 44.4067 86.6378 44.77 86.8711 45.27C87.1111 45.77 87.2544 46.4233 87.3011 47.23C87.3144 47.5833 87.3244 48 87.3311 48.48C87.3444 48.9533 87.3511 49.45 87.3511 49.97C87.3511 50.4833 87.3444 50.9833 87.3311 51.47C87.3244 51.9567 87.3144 52.3867 87.3011 52.76C87.2544 53.58 87.1111 54.24 86.8711 54.74C86.6311 55.24 86.2511 55.6033 85.7311 55.83C85.2178 56.0567 84.5211 56.17 83.6411 56.17ZM83.6411 54.44C84.1344 54.44 84.4811 54.3467 84.6811 54.16C84.8811 53.9667 84.9878 53.6833 85.0011 53.31C85.0211 52.71 85.0344 52.1367 85.0411 51.59C85.0544 51.0367 85.0611 50.4967 85.0611 49.97C85.0611 49.4367 85.0544 48.9 85.0411 48.36C85.0344 47.82 85.0211 47.26 85.0011 46.68C84.9878 46.2933 84.8778 46.01 84.6711 45.83C84.4711 45.65 84.1278 45.56 83.6411 45.56C83.1611 45.56 82.8111 45.6567 82.5911 45.85C82.3778 46.0433 82.2644 46.3267 82.2511 46.7C82.2378 47.1667 82.2244 47.6667 82.2111 48.2C82.2044 48.7333 82.2011 49.2833 82.2011 49.85C82.2011 50.4167 82.2044 50.99 82.2111 51.57C82.2244 52.1433 82.2444 52.7167 82.2711 53.29C82.2844 53.6833 82.3944 53.9733 82.6011 54.16C82.8144 54.3467 83.1611 54.44 83.6411 54.44ZM95.7819 56.17C94.9752 56.17 94.3652 55.9433 93.9519 55.49C93.5452 55.03 93.3152 54.2733 93.2619 53.22C93.2419 52.78 93.2285 52.2767 93.2219 51.71C93.2152 51.1367 93.2119 50.55 93.2119 49.95C93.2185 49.35 93.2252 48.7767 93.2319 48.23C93.2385 47.6767 93.2485 47.1933 93.2619 46.78C93.3085 45.7133 93.5485 44.9567 93.9819 44.51C94.4219 44.0567 95.0352 43.83 95.8219 43.83C96.4219 43.83 96.8785 43.9467 97.1919 44.18C97.5052 44.4067 97.7919 44.7467 98.0519 45.2H98.4119V40H100.742V56H98.4119V54.79H98.0319C97.7785 55.2433 97.4852 55.5867 97.1519 55.82C96.8252 56.0533 96.3685 56.17 95.7819 56.17ZM96.6919 54.48C97.0452 54.48 97.3852 54.3933 97.7119 54.22C98.0385 54.0467 98.2719 53.7933 98.4119 53.46V46.53C98.2719 46.1967 98.0385 45.9467 97.7119 45.78C97.3852 45.6067 97.0485 45.52 96.7019 45.52C96.3285 45.52 96.0552 45.6033 95.8819 45.77C95.7152 45.9367 95.6219 46.19 95.6019 46.53C95.5685 47.2833 95.5452 48.0633 95.5319 48.87C95.5252 49.67 95.5252 50.46 95.5319 51.24C95.5452 52.0133 95.5652 52.7267 95.5919 53.38C95.6119 53.7733 95.7052 54.0567 95.8719 54.23C96.0452 54.3967 96.3185 54.48 96.6919 54.48ZM105.935 56.17C104.668 56.17 103.762 55.9267 103.215 55.44C102.675 54.9533 102.372 54.17 102.305 53.09C102.292 52.69 102.278 52.22 102.265 51.68C102.258 51.1333 102.255 50.5667 102.255 49.98C102.255 49.3933 102.258 48.8333 102.265 48.3C102.278 47.7667 102.292 47.3133 102.305 46.94C102.378 45.82 102.695 45.0233 103.255 44.55C103.815 44.07 104.698 43.83 105.905 43.83C107.125 43.83 108.005 44.0667 108.545 44.54C109.085 45.0133 109.382 45.7833 109.435 46.85C109.442 47.01 109.445 47.29 109.445 47.69C109.452 48.0833 109.452 48.5267 109.445 49.02C109.445 49.5133 109.435 49.9767 109.415 50.41H104.585C104.585 50.8767 104.588 51.3533 104.595 51.84C104.608 52.32 104.622 52.82 104.635 53.34C104.648 53.74 104.755 54.0233 104.955 54.19C105.155 54.35 105.478 54.43 105.925 54.43C106.358 54.43 106.662 54.35 106.835 54.19C107.015 54.0233 107.115 53.7367 107.135 53.33C107.148 53.13 107.155 52.8833 107.155 52.59C107.162 52.29 107.155 51.95 107.135 51.57H109.415C109.428 51.7233 109.438 51.96 109.445 52.28C109.452 52.6 109.448 52.87 109.435 53.09C109.382 54.19 109.085 54.98 108.545 55.46C108.012 55.9333 107.142 56.17 105.935 56.17ZM104.595 48.77H107.155C107.162 48.47 107.165 48.1733 107.165 47.88C107.165 47.58 107.162 47.3167 107.155 47.09C107.155 46.8633 107.148 46.7033 107.135 46.61C107.115 46.2233 107.008 45.9533 106.815 45.8C106.628 45.64 106.325 45.56 105.905 45.56C105.445 45.56 105.122 45.6467 104.935 45.82C104.748 45.9867 104.648 46.25 104.635 46.61C104.628 46.9767 104.618 47.34 104.605 47.7C104.598 48.06 104.595 48.4167 104.595 48.77ZM120.294 56.17C119.687 56.17 119.227 56.0533 118.914 55.82C118.607 55.5867 118.321 55.2433 118.054 54.79H117.774V56H115.444V40H117.774V45.2H118.204C118.464 44.7467 118.751 44.4067 119.064 44.18C119.384 43.9467 119.844 43.83 120.444 43.83C121.237 43.83 121.837 44.0567 122.244 44.51C122.651 44.9567 122.874 45.7133 122.914 46.78C122.927 47.2 122.937 47.69 122.944 48.25C122.957 48.81 122.964 49.39 122.964 49.99C122.964 50.59 122.957 51.1733 122.944 51.74C122.937 52.3 122.927 52.7933 122.914 53.22C122.874 54.2733 122.627 55.03 122.174 55.49C121.727 55.9433 121.101 56.17 120.294 56.17ZM119.494 54.48C119.881 54.48 120.154 54.3933 120.314 54.22C120.481 54.0467 120.571 53.7767 120.584 53.41C120.604 52.8967 120.621 52.3633 120.634 51.81C120.647 51.25 120.654 50.68 120.654 50.1C120.661 49.5133 120.657 48.93 120.644 48.35C120.637 47.7633 120.621 47.1867 120.594 46.62C120.581 46.2533 120.491 45.98 120.324 45.8C120.164 45.6133 119.887 45.52 119.494 45.52C119.121 45.52 118.774 45.61 118.454 45.79C118.141 45.9633 117.914 46.21 117.774 46.53V53.46C117.921 53.8 118.157 54.0567 118.484 54.23C118.811 54.3967 119.147 54.48 119.494 54.48ZM128.27 56.17C127.403 56.17 126.707 56.0567 126.18 55.83C125.66 55.6033 125.277 55.24 125.03 54.74C124.783 54.24 124.637 53.58 124.59 52.76C124.577 52.4267 124.563 52.0267 124.55 51.56C124.543 51.0867 124.54 50.5867 124.54 50.06C124.54 49.5333 124.543 49.0233 124.55 48.53C124.563 48.0367 124.577 47.6033 124.59 47.23C124.643 46.4033 124.793 45.74 125.04 45.24C125.287 44.74 125.67 44.38 126.19 44.16C126.71 43.94 127.403 43.83 128.27 43.83C129.157 43.83 129.857 43.9467 130.37 44.18C130.89 44.4067 131.267 44.77 131.5 45.27C131.74 45.77 131.883 46.4233 131.93 47.23C131.943 47.5833 131.953 48 131.96 48.48C131.973 48.9533 131.98 49.45 131.98 49.97C131.98 50.4833 131.973 50.9833 131.96 51.47C131.953 51.9567 131.943 52.3867 131.93 52.76C131.883 53.58 131.74 54.24 131.5 54.74C131.26 55.24 130.88 55.6033 130.36 55.83C129.847 56.0567 129.15 56.17 128.27 56.17ZM128.27 54.44C128.763 54.44 129.11 54.3467 129.31 54.16C129.51 53.9667 129.617 53.6833 129.63 53.31C129.65 52.71 129.663 52.1367 129.67 51.59C129.683 51.0367 129.69 50.4967 129.69 49.97C129.69 49.4367 129.683 48.9 129.67 48.36C129.663 47.82 129.65 47.26 129.63 46.68C129.617 46.2933 129.507 46.01 129.3 45.83C129.1 45.65 128.757 45.56 128.27 45.56C127.79 45.56 127.44 45.6567 127.22 45.85C127.007 46.0433 126.893 46.3267 126.88 46.7C126.867 47.1667 126.853 47.6667 126.84 48.2C126.833 48.7333 126.83 49.2833 126.83 49.85C126.83 50.4167 126.833 50.99 126.84 51.57C126.853 52.1433 126.873 52.7167 126.9 53.29C126.913 53.6833 127.023 53.9733 127.23 54.16C127.443 54.3467 127.79 54.44 128.27 54.44ZM133.803 56V44H136.103V45.2H136.563C136.823 44.7533 137.117 44.4133 137.443 44.18C137.77 43.9467 138.223 43.83 138.803 43.83C139.623 43.83 140.243 44.06 140.663 44.52C141.09 44.98 141.303 45.7333 141.303 46.78V56H139.013V46.59C139.007 46.2167 138.91 45.9467 138.723 45.78C138.537 45.6067 138.25 45.52 137.863 45.52C137.517 45.52 137.17 45.61 136.823 45.79C136.477 45.97 136.237 46.2167 136.103 46.53V56H133.803ZM145.645 56.17C144.838 56.17 144.228 55.9433 143.815 55.49C143.408 55.03 143.178 54.2733 143.125 53.22C143.105 52.78 143.092 52.2767 143.085 51.71C143.078 51.1367 143.075 50.55 143.075 49.95C143.082 49.35 143.088 48.7767 143.095 48.23C143.102 47.6767 143.112 47.1933 143.125 46.78C143.172 45.7133 143.412 44.9567 143.845 44.51C144.285 44.0567 144.898 43.83 145.685 43.83C146.285 43.83 146.742 43.9467 147.055 44.18C147.368 44.4067 147.655 44.7467 147.915 45.2H148.275V40H150.605V56H148.275V54.79H147.895C147.642 55.2433 147.348 55.5867 147.015 55.82C146.688 56.0533 146.232 56.17 145.645 56.17ZM146.555 54.48C146.908 54.48 147.248 54.3933 147.575 54.22C147.902 54.0467 148.135 53.7933 148.275 53.46V46.53C148.135 46.1967 147.902 45.9467 147.575 45.78C147.248 45.6067 146.912 45.52 146.565 45.52C146.192 45.52 145.918 45.6033 145.745 45.77C145.578 45.9367 145.485 46.19 145.465 46.53C145.432 47.2833 145.408 48.0633 145.395 48.87C145.388 49.67 145.388 50.46 145.395 51.24C145.408 52.0133 145.428 52.7267 145.455 53.38C145.475 53.7733 145.568 54.0567 145.735 54.23C145.908 54.3967 146.182 54.48 146.555 54.48ZM154.716 56.14C153.876 56.14 153.24 55.9367 152.806 55.53C152.38 55.1167 152.13 54.4467 152.056 53.52C152.05 53.38 152.043 53.2233 152.036 53.05C152.036 52.8767 152.04 52.7233 152.046 52.59C152.086 52.0767 152.196 51.63 152.376 51.25C152.563 50.87 152.856 50.53 153.256 50.23C153.656 49.93 154.193 49.6433 154.866 49.37C155.226 49.23 155.583 49.1 155.936 48.98C156.296 48.86 156.68 48.7433 157.086 48.63V46.7C157.086 46.3 156.99 46.01 156.796 45.83C156.603 45.65 156.286 45.56 155.846 45.56C155.466 45.56 155.17 45.6367 154.956 45.79C154.75 45.9433 154.636 46.2067 154.616 46.58C154.61 46.7133 154.603 46.91 154.596 47.17C154.596 47.4233 154.596 47.67 154.596 47.91C154.603 48.15 154.61 48.3133 154.616 48.4H152.386C152.38 48.2133 152.373 47.9767 152.366 47.69C152.36 47.4033 152.36 47.1233 152.366 46.85C152.4 46.15 152.53 45.58 152.756 45.14C152.99 44.6933 153.36 44.3633 153.866 44.15C154.38 43.9367 155.066 43.83 155.926 43.83C156.8 43.83 157.483 43.9467 157.976 44.18C158.476 44.4067 158.826 44.77 159.026 45.27C159.233 45.7633 159.336 46.4067 159.336 47.2L159.326 56H157.046V54.79H156.706C156.493 55.2367 156.246 55.5733 155.966 55.8C155.693 56.0267 155.276 56.14 154.716 56.14ZM155.556 54.48C155.896 54.48 156.196 54.3933 156.456 54.22C156.716 54.0467 156.916 53.8067 157.056 53.5L157.076 50.25C156.81 50.3233 156.536 50.41 156.256 50.51C155.976 50.6033 155.693 50.7267 155.406 50.88C154.98 51.0867 154.7 51.3367 154.566 51.63C154.44 51.9167 154.37 52.2367 154.356 52.59C154.35 52.7633 154.346 52.9 154.346 53C154.353 53.1 154.36 53.22 154.366 53.36C154.4 53.7133 154.516 53.99 154.716 54.19C154.916 54.3833 155.196 54.48 155.556 54.48ZM163.673 56.17C162.866 56.17 162.256 55.9433 161.843 55.49C161.436 55.03 161.206 54.2733 161.153 53.22C161.133 52.78 161.119 52.2767 161.113 51.71C161.106 51.1367 161.103 50.55 161.103 49.95C161.109 49.35 161.116 48.7767 161.123 48.23C161.129 47.6767 161.139 47.1933 161.153 46.78C161.199 45.7133 161.439 44.9567 161.873 44.51C162.313 44.0567 162.926 43.83 163.713 43.83C164.313 43.83 164.769 43.9467 165.083 44.18C165.396 44.4067 165.683 44.7467 165.943 45.2H166.303V40H168.633V56H166.303V54.79H165.923C165.669 55.2433 165.376 55.5867 165.043 55.82C164.716 56.0533 164.259 56.17 163.673 56.17ZM164.583 54.48C164.936 54.48 165.276 54.3933 165.603 54.22C165.929 54.0467 166.163 53.7933 166.303 53.46V46.53C166.163 46.1967 165.929 45.9467 165.603 45.78C165.276 45.6067 164.939 45.52 164.593 45.52C164.219 45.52 163.946 45.6033 163.773 45.77C163.606 45.9367 163.513 46.19 163.493 46.53C163.459 47.2833 163.436 48.0633 163.423 48.87C163.416 49.67 163.416 50.46 163.423 51.24C163.436 52.0133 163.456 52.7267 163.483 53.38C163.503 53.7733 163.596 54.0567 163.763 54.23C163.936 54.3967 164.209 54.48 164.583 54.48ZM173.825 56.17C172.559 56.17 171.652 55.9267 171.105 55.44C170.565 54.9533 170.262 54.17 170.195 53.09C170.182 52.69 170.169 52.22 170.155 51.68C170.149 51.1333 170.145 50.5667 170.145 49.98C170.145 49.3933 170.149 48.8333 170.155 48.3C170.169 47.7667 170.182 47.3133 170.195 46.94C170.269 45.82 170.585 45.0233 171.145 44.55C171.705 44.07 172.589 43.83 173.795 43.83C175.015 43.83 175.895 44.0667 176.435 44.54C176.975 45.0133 177.272 45.7833 177.325 46.85C177.332 47.01 177.335 47.29 177.335 47.69C177.342 48.0833 177.342 48.5267 177.335 49.02C177.335 49.5133 177.325 49.9767 177.305 50.41H172.475C172.475 50.8767 172.479 51.3533 172.485 51.84C172.499 52.32 172.512 52.82 172.525 53.34C172.539 53.74 172.645 54.0233 172.845 54.19C173.045 54.35 173.369 54.43 173.815 54.43C174.249 54.43 174.552 54.35 174.725 54.19C174.905 54.0233 175.005 53.7367 175.025 53.33C175.039 53.13 175.045 52.8833 175.045 52.59C175.052 52.29 175.045 51.95 175.025 51.57H177.305C177.319 51.7233 177.329 51.96 177.335 52.28C177.342 52.6 177.339 52.87 177.325 53.09C177.272 54.19 176.975 54.98 176.435 55.46C175.902 55.9333 175.032 56.17 173.825 56.17ZM172.485 48.77H175.045C175.052 48.47 175.055 48.1733 175.055 47.88C175.055 47.58 175.052 47.3167 175.045 47.09C175.045 46.8633 175.039 46.7033 175.025 46.61C175.005 46.2233 174.899 45.9533 174.705 45.8C174.519 45.64 174.215 45.56 173.795 45.56C173.335 45.56 173.012 45.6467 172.825 45.82C172.639 45.9867 172.539 46.25 172.525 46.61C172.519 46.9767 172.509 47.34 172.495 47.7C172.489 48.06 172.485 48.4167 172.485 48.77ZM187.975 48.39C187.981 48.2167 187.985 48.0233 187.985 47.81C187.991 47.59 187.991 47.3733 187.985 47.16C187.985 46.9467 187.981 46.76 187.975 46.6C187.961 46.2333 187.865 45.97 187.685 45.81C187.511 45.6433 187.195 45.56 186.735 45.56C186.281 45.56 185.961 45.64 185.775 45.8C185.595 45.96 185.498 46.23 185.485 46.61C185.465 47.2233 185.448 47.81 185.435 48.37C185.428 48.9233 185.425 49.4667 185.425 50C185.425 50.5333 185.428 51.0733 185.435 51.62C185.448 52.1667 185.465 52.74 185.485 53.34C185.498 53.74 185.601 54.0233 185.795 54.19C185.995 54.3567 186.318 54.44 186.765 54.44C187.218 54.44 187.528 54.3533 187.695 54.18C187.868 54 187.961 53.7167 187.975 53.33C187.988 53.09 187.995 52.8367 187.995 52.57C187.995 52.2967 187.988 51.9633 187.975 51.57H190.245C190.265 51.73 190.275 51.9667 190.275 52.28C190.281 52.5933 190.278 52.8633 190.265 53.09C190.218 54.1833 189.925 54.97 189.385 55.45C188.845 55.93 187.971 56.17 186.765 56.17C185.498 56.17 184.591 55.93 184.045 55.45C183.505 54.9633 183.205 54.1767 183.145 53.09C183.131 52.6967 183.118 52.2267 183.105 51.68C183.098 51.1333 183.095 50.5667 183.095 49.98C183.095 49.3867 183.098 48.8233 183.105 48.29C183.118 47.7567 183.131 47.3067 183.145 46.94C183.218 45.82 183.531 45.0233 184.085 44.55C184.645 44.07 185.528 43.83 186.735 43.83C187.955 43.83 188.838 44.0667 189.385 44.54C189.931 45.0067 190.225 45.7767 190.265 46.85C190.278 47.0967 190.281 47.3767 190.275 47.69C190.275 48.0033 190.265 48.2367 190.245 48.39H187.975ZM195.516 56.17C194.649 56.17 193.953 56.0567 193.426 55.83C192.906 55.6033 192.523 55.24 192.276 54.74C192.029 54.24 191.883 53.58 191.836 52.76C191.823 52.4267 191.809 52.0267 191.796 51.56C191.789 51.0867 191.786 50.5867 191.786 50.06C191.786 49.5333 191.789 49.0233 191.796 48.53C191.809 48.0367 191.823 47.6033 191.836 47.23C191.889 46.4033 192.039 45.74 192.286 45.24C192.533 44.74 192.916 44.38 193.436 44.16C193.956 43.94 194.649 43.83 195.516 43.83C196.403 43.83 197.103 43.9467 197.616 44.18C198.136 44.4067 198.513 44.77 198.746 45.27C198.986 45.77 199.129 46.4233 199.176 47.23C199.189 47.5833 199.199 48 199.206 48.48C199.219 48.9533 199.226 49.45 199.226 49.97C199.226 50.4833 199.219 50.9833 199.206 51.47C199.199 51.9567 199.189 52.3867 199.176 52.76C199.129 53.58 198.986 54.24 198.746 54.74C198.506 55.24 198.126 55.6033 197.606 55.83C197.093 56.0567 196.396 56.17 195.516 56.17ZM195.516 54.44C196.009 54.44 196.356 54.3467 196.556 54.16C196.756 53.9667 196.863 53.6833 196.876 53.31C196.896 52.71 196.909 52.1367 196.916 51.59C196.929 51.0367 196.936 50.4967 196.936 49.97C196.936 49.4367 196.929 48.9 196.916 48.36C196.909 47.82 196.896 47.26 196.876 46.68C196.863 46.2933 196.753 46.01 196.546 45.83C196.346 45.65 196.003 45.56 195.516 45.56C195.036 45.56 194.686 45.6567 194.466 45.85C194.253 46.0433 194.139 46.3267 194.126 46.7C194.113 47.1667 194.099 47.6667 194.086 48.2C194.079 48.7333 194.076 49.2833 194.076 49.85C194.076 50.4167 194.079 50.99 194.086 51.57C194.099 52.1433 194.119 52.7167 194.146 53.29C194.159 53.6833 194.269 53.9733 194.476 54.16C194.689 54.3467 195.036 54.44 195.516 54.44ZM201.05 56V44H203.35V45.2H203.81C204.07 44.7533 204.363 44.4133 204.69 44.18C205.016 43.9467 205.47 43.83 206.05 43.83C206.87 43.83 207.49 44.06 207.91 44.52C208.336 44.98 208.55 45.7333 208.55 46.78V56H206.26V46.59C206.253 46.2167 206.156 45.9467 205.97 45.78C205.783 45.6067 205.496 45.52 205.11 45.52C204.763 45.52 204.416 45.61 204.07 45.79C203.723 45.97 203.483 46.2167 203.35 46.53V56H201.05ZM214.631 56.17C213.291 56.17 212.338 55.9333 211.771 55.46C211.211 54.9867 210.931 54.1867 210.931 53.06L210.911 45.75H209.841V44H210.971V40.6H213.291V44H215.461V45.75H213.231L213.251 53.33C213.251 53.77 213.351 54.0667 213.551 54.22C213.751 54.3733 214.115 54.45 214.641 54.45C214.835 54.45 215.008 54.4467 215.161 54.44C215.321 54.4267 215.498 54.4167 215.691 54.41V56.07C215.531 56.0967 215.365 56.12 215.191 56.14C215.025 56.16 214.838 56.17 214.631 56.17ZM219.248 56.14C218.408 56.14 217.771 55.9367 217.338 55.53C216.911 55.1167 216.661 54.4467 216.588 53.52C216.581 53.38 216.574 53.2233 216.568 53.05C216.568 52.8767 216.571 52.7233 216.578 52.59C216.618 52.0767 216.728 51.63 216.908 51.25C217.094 50.87 217.388 50.53 217.788 50.23C218.188 49.93 218.724 49.6433 219.398 49.37C219.758 49.23 220.114 49.1 220.468 48.98C220.828 48.86 221.211 48.7433 221.618 48.63V46.7C221.618 46.3 221.521 46.01 221.328 45.83C221.134 45.65 220.818 45.56 220.378 45.56C219.998 45.56 219.701 45.6367 219.488 45.79C219.281 45.9433 219.168 46.2067 219.148 46.58C219.141 46.7133 219.134 46.91 219.128 47.17C219.128 47.4233 219.128 47.67 219.128 47.91C219.134 48.15 219.141 48.3133 219.148 48.4H216.918C216.911 48.2133 216.904 47.9767 216.898 47.69C216.891 47.4033 216.891 47.1233 216.898 46.85C216.931 46.15 217.061 45.58 217.288 45.14C217.521 44.6933 217.891 44.3633 218.398 44.15C218.911 43.9367 219.598 43.83 220.458 43.83C221.331 43.83 222.014 43.9467 222.508 44.18C223.008 44.4067 223.358 44.77 223.558 45.27C223.764 45.7633 223.868 46.4067 223.868 47.2L223.858 56H221.578V54.79H221.238C221.024 55.2367 220.778 55.5733 220.498 55.8C220.224 56.0267 219.808 56.14 219.248 56.14ZM220.088 54.48C220.428 54.48 220.728 54.3933 220.987 54.22C221.248 54.0467 221.448 53.8067 221.587 53.5L221.608 50.25C221.341 50.3233 221.068 50.41 220.788 50.51C220.508 50.6033 220.224 50.7267 219.938 50.88C219.511 51.0867 219.231 51.3367 219.098 51.63C218.971 51.9167 218.901 52.2367 218.888 52.59C218.881 52.7633 218.877 52.9 218.877 53C218.884 53.1 218.891 53.22 218.898 53.36C218.931 53.7133 219.048 53.99 219.248 54.19C219.448 54.3833 219.728 54.48 220.088 54.48ZM226.294 52.22L225.984 46.65V40H228.304V46.65L228.004 52.22H226.294ZM225.484 56V53.64H228.794V56H225.484Z" fill="#91C612"/>
</svg>
